<mxfile host="app.diagrams.net" modified="2024-04-16T01:33:02.801Z" agent="Mozilla/5.0 (Windows NT 10.0; Win64; x64) AppleWebKit/537.36 (KHTML, like Gecko) Chrome/123.0.0.0 Safari/537.36" etag="IY0xRJ1apGPP3J7z4miv" version="24.2.5" type="onedrive">
  <diagram name="Página-1" id="lQtnm-dnjkMWzILxmmZx">
    <mxGraphModel dx="870" dy="875" grid="0" gridSize="10" guides="1" tooltips="1" connect="1" arrows="1" fold="1" page="0" pageScale="1" pageWidth="827" pageHeight="1169" math="0" shadow="0">
      <root>
        <mxCell id="0" />
        <mxCell id="1" parent="0" />
        <mxCell id="Y9XDCs3cdz9xWgN9fsB4-11" style="edgeStyle=none;curved=1;rounded=0;orthogonalLoop=1;jettySize=auto;html=1;exitX=0;exitY=0;exitDx=0;exitDy=0;entryX=1;entryY=0.5;entryDx=0;entryDy=0;fontSize=12;startSize=8;endSize=8;" edge="1" parent="1" source="Y9XDCs3cdz9xWgN9fsB4-1" target="Y9XDCs3cdz9xWgN9fsB4-6">
          <mxGeometry relative="1" as="geometry" />
        </mxCell>
        <mxCell id="Y9XDCs3cdz9xWgN9fsB4-1" value="&lt;font style=&quot;vertical-align: inherit;&quot;&gt;&lt;font style=&quot;vertical-align: inherit;&quot;&gt;&lt;font style=&quot;vertical-align: inherit;&quot;&gt;&lt;font style=&quot;vertical-align: inherit;&quot;&gt;Anotar&amp;nbsp;&lt;/font&gt;&lt;/font&gt;&lt;/font&gt;&lt;/font&gt;&lt;div&gt;&lt;span style=&quot;background-color: initial;&quot;&gt;&lt;font style=&quot;vertical-align: inherit;&quot;&gt;&lt;font style=&quot;vertical-align: inherit;&quot;&gt;Pedido&lt;/font&gt;&lt;/font&gt;&lt;/span&gt;&lt;/div&gt;" style="ellipse;whiteSpace=wrap;html=1;aspect=fixed;" vertex="1" parent="1">
          <mxGeometry x="197.25" y="251" width="64" height="64" as="geometry" />
        </mxCell>
        <mxCell id="Y9XDCs3cdz9xWgN9fsB4-3" style="edgeStyle=none;curved=1;rounded=0;orthogonalLoop=1;jettySize=auto;html=1;fontSize=12;startSize=8;endSize=8;" edge="1" parent="1" source="Y9XDCs3cdz9xWgN9fsB4-2" target="Y9XDCs3cdz9xWgN9fsB4-1">
          <mxGeometry relative="1" as="geometry" />
        </mxCell>
        <mxCell id="Y9XDCs3cdz9xWgN9fsB4-4" value="&lt;font style=&quot;vertical-align: inherit;&quot;&gt;&lt;font style=&quot;vertical-align: inherit;&quot;&gt;Pedido&lt;/font&gt;&lt;/font&gt;" style="edgeLabel;html=1;align=center;verticalAlign=middle;resizable=0;points=[];fontSize=12;" vertex="1" connectable="0" parent="Y9XDCs3cdz9xWgN9fsB4-3">
          <mxGeometry x="-0.1" relative="1" as="geometry">
            <mxPoint as="offset" />
          </mxGeometry>
        </mxCell>
        <mxCell id="Y9XDCs3cdz9xWgN9fsB4-2" value="&lt;font style=&quot;vertical-align: inherit;&quot;&gt;&lt;font style=&quot;vertical-align: inherit;&quot;&gt;Cliente&lt;/font&gt;&lt;/font&gt;" style="rounded=0;whiteSpace=wrap;html=1;" vertex="1" parent="1">
          <mxGeometry x="190" y="115" width="78.5" height="41" as="geometry" />
        </mxCell>
        <mxCell id="Y9XDCs3cdz9xWgN9fsB4-6" value="&lt;font style=&quot;vertical-align: inherit;&quot;&gt;&lt;font style=&quot;vertical-align: inherit;&quot;&gt;Pedido&lt;/font&gt;&lt;/font&gt;" style="rounded=0;whiteSpace=wrap;html=1;" vertex="1" parent="1">
          <mxGeometry x="63" y="186" width="71" height="30" as="geometry" />
        </mxCell>
        <mxCell id="Y9XDCs3cdz9xWgN9fsB4-15" style="edgeStyle=none;curved=1;rounded=0;orthogonalLoop=1;jettySize=auto;html=1;exitX=1;exitY=0.5;exitDx=0;exitDy=0;entryX=0;entryY=0.5;entryDx=0;entryDy=0;fontSize=12;startSize=8;endSize=8;" edge="1" parent="1" source="Y9XDCs3cdz9xWgN9fsB4-12" target="Y9XDCs3cdz9xWgN9fsB4-1">
          <mxGeometry relative="1" as="geometry" />
        </mxCell>
        <mxCell id="Y9XDCs3cdz9xWgN9fsB4-12" value="&lt;font style=&quot;vertical-align: inherit;&quot;&gt;&lt;font style=&quot;vertical-align: inherit;&quot;&gt;&lt;font style=&quot;vertical-align: inherit;&quot;&gt;&lt;font style=&quot;vertical-align: inherit;&quot;&gt;Pizza&lt;/font&gt;&lt;/font&gt;&lt;/font&gt;&lt;/font&gt;" style="rounded=0;whiteSpace=wrap;html=1;" vertex="1" parent="1">
          <mxGeometry x="61" y="268" width="71" height="30" as="geometry" />
        </mxCell>
        <mxCell id="Y9XDCs3cdz9xWgN9fsB4-21" value="&lt;div style=&quot;-webkit-user-drag: none; -webkit-tap-highlight-color: transparent; margin: 0px; padding: 0px; user-select: text; clear: both; cursor: text; overflow: visible; position: relative; direction: ltr; font-family: &amp;quot;Segoe UI&amp;quot;, &amp;quot;Segoe UI Web&amp;quot;, Arial, Verdana, sans-serif; font-size: 12px; text-align: start;&quot; class=&quot;OutlineElement Ltr SCXW203048722 BCX0&quot;&gt;&lt;p style=&quot;-webkit-user-drag: none; -webkit-tap-highlight-color: transparent; margin: 0px 0px 10.6667px; padding: 0px; user-select: text; overflow-wrap: break-word; white-space-collapse: preserve; vertical-align: baseline; font-kerning: none; background-color: transparent; color: windowtext;&quot; class=&quot;Paragraph SCXW203048722 BCX0&quot;&gt;&lt;span style=&quot;-webkit-user-drag: none; -webkit-tap-highlight-color: transparent; margin: 0px; padding: 0px; user-select: text; font-variant-ligatures: none !important; color: rgb(13, 13, 13); font-size: 12pt; line-height: 20.5042px; font-family: Calibri, Calibri_EmbeddedFont, Calibri_MSFontService, sans-serif; font-weight: bold;&quot; class=&quot;TextRun SCXW203048722 BCX0&quot; lang=&quot;PT-BR&quot; data-contrast=&quot;none&quot;&gt;&lt;font style=&quot;vertical-align: inherit;&quot;&gt;&lt;font style=&quot;vertical-align: inherit;&quot;&gt;Anotar Pedido:&lt;/font&gt;&lt;/font&gt;&lt;/span&gt;&lt;span style=&quot;-webkit-user-drag: none; -webkit-tap-highlight-color: transparent; margin: 0px; padding: 0px; user-select: text; font-size: 12pt; line-height: 20.5042px; font-family: Calibri, Calibri_EmbeddedFont, Calibri_MSFontService, sans-serif; color: rgb(13, 13, 13);&quot; data-ccp-props=&quot;{}&quot; class=&quot;EOP SCXW203048722 BCX0&quot;&gt;&amp;nbsp;&lt;/span&gt;&lt;/p&gt;&lt;/div&gt;&lt;div style=&quot;-webkit-user-drag: none; -webkit-tap-highlight-color: transparent; margin: 0px; padding: 0px; user-select: text; position: relative; font-family: &amp;quot;Segoe UI&amp;quot;, &amp;quot;Segoe UI Web&amp;quot;, Arial, Verdana, sans-serif; font-size: 12px; text-align: start;&quot; class=&quot;ListContainerWrapper SCXW203048722 BCX0&quot;&gt;&lt;ul style=&quot;-webkit-user-drag: none; -webkit-tap-highlight-color: transparent; margin: 0px; padding: 0px; user-select: text; cursor: text; font-family: verdana; overflow: visible;&quot; role=&quot;list&quot; class=&quot;BulletListStyle1 SCXW203048722 BCX0&quot;&gt;&lt;li style=&quot;-webkit-user-drag: none; -webkit-tap-highlight-color: transparent; margin: 0px 0px 0px 24px; padding: 0px; user-select: text; clear: both; cursor: text; overflow: visible; position: relative; direction: ltr; display: block; font-size: 12pt; font-family: Calibri, Calibri_MSFontService, sans-serif; vertical-align: baseline;&quot; class=&quot;OutlineElement Ltr SCXW203048722 BCX0&quot; role=&quot;listitem&quot; data-aria-level=&quot;1&quot; data-aria-posinset=&quot;1&quot; aria-setsize=&quot;-1&quot; data-list-defn-props=&quot;{&amp;quot;335552541&amp;quot;:1,&amp;quot;335559685&amp;quot;:720,&amp;quot;335559991&amp;quot;:360,&amp;quot;469769226&amp;quot;:&amp;quot;Symbol&amp;quot;,&amp;quot;469769242&amp;quot;:[8226],&amp;quot;469777803&amp;quot;:&amp;quot;left&amp;quot;,&amp;quot;469777804&amp;quot;:&amp;quot;&amp;quot;,&amp;quot;469777815&amp;quot;:&amp;quot;hybridMultilevel&amp;quot;}&quot; data-listid=&quot;1&quot; data-font=&quot;Symbol&quot; data-leveltext=&quot;&quot;&gt;&lt;p style=&quot;-webkit-user-drag: none; -webkit-tap-highlight-color: transparent; margin: 0px; padding: 0px; user-select: text; overflow-wrap: break-word; white-space-collapse: preserve; vertical-align: baseline; font-kerning: none; color: windowtext;&quot; class=&quot;Paragraph SCXW203048722 BCX0&quot;&gt;&lt;span style=&quot;-webkit-user-drag: none; -webkit-tap-highlight-color: transparent; margin: 0px; padding: 0px; user-select: text; font-variant-ligatures: none !important; color: rgb(13, 13, 13); font-size: 12pt; line-height: 20.5042px; font-family: Calibri, Calibri_EmbeddedFont, Calibri_MSFontService, sans-serif; font-weight: bold;&quot; class=&quot;TextRun SCXW203048722 BCX0&quot; lang=&quot;PT-BR&quot; data-contrast=&quot;none&quot;&gt;&lt;font style=&quot;vertical-align: inherit;&quot;&gt;&lt;font style=&quot;vertical-align: inherit;&quot;&gt;Evento: &lt;/font&gt;&lt;/font&gt;&lt;/span&gt;&lt;span style=&quot;-webkit-user-drag: none; -webkit-tap-highlight-color: transparent; margin: 0px; padding: 0px; user-select: text; font-variant-ligatures: none !important; color: rgb(13, 13, 13); font-size: 12pt; line-height: 20.5042px; font-family: Calibri, Calibri_EmbeddedFont, Calibri_MSFontService, sans-serif;&quot; class=&quot;TextRun SCXW203048722 BCX0&quot; lang=&quot;PT-BR&quot; data-contrast=&quot;none&quot;&gt;&lt;font style=&quot;vertical-align: inherit;&quot;&gt;&lt;font style=&quot;vertical-align: inherit;&quot;&gt;Cliente faz pedido.&lt;/font&gt;&lt;/font&gt;&lt;/span&gt;&lt;span style=&quot;-webkit-user-drag: none; -webkit-tap-highlight-color: transparent; margin: 0px; padding: 0px; user-select: text; font-size: 12pt; line-height: 20.5042px; font-family: Calibri, Calibri_EmbeddedFont, Calibri_MSFontService, sans-serif; color: rgb(13, 13, 13);&quot; data-ccp-props=&quot;{&amp;quot;335557856&amp;quot;:16777215,&amp;quot;335559739&amp;quot;:0}&quot; class=&quot;EOP SCXW203048722 BCX0&quot;&gt;&amp;nbsp;&lt;/span&gt;&lt;/p&gt;&lt;/li&gt;&lt;li style=&quot;-webkit-user-drag: none; -webkit-tap-highlight-color: transparent; margin: 0px 0px 0px 24px; padding: 0px; user-select: text; clear: both; cursor: text; overflow: visible; position: relative; direction: ltr; display: block; font-size: 12pt; font-family: Calibri, Calibri_MSFontService, sans-serif; vertical-align: baseline;&quot; class=&quot;OutlineElement Ltr SCXW203048722 BCX0&quot; role=&quot;listitem&quot; data-aria-level=&quot;1&quot; data-aria-posinset=&quot;2&quot; aria-setsize=&quot;-1&quot; data-list-defn-props=&quot;{&amp;quot;335552541&amp;quot;:1,&amp;quot;335559685&amp;quot;:720,&amp;quot;335559991&amp;quot;:360,&amp;quot;469769226&amp;quot;:&amp;quot;Symbol&amp;quot;,&amp;quot;469769242&amp;quot;:[8226],&amp;quot;469777803&amp;quot;:&amp;quot;left&amp;quot;,&amp;quot;469777804&amp;quot;:&amp;quot;&amp;quot;,&amp;quot;469777815&amp;quot;:&amp;quot;hybridMultilevel&amp;quot;}&quot; data-listid=&quot;1&quot; data-font=&quot;Symbol&quot; data-leveltext=&quot;&quot;&gt;&lt;p style=&quot;-webkit-user-drag: none; -webkit-tap-highlight-color: transparent; margin: 0px; padding: 0px; user-select: text; overflow-wrap: break-word; white-space-collapse: preserve; vertical-align: baseline; font-kerning: none; color: windowtext;&quot; class=&quot;Paragraph SCXW203048722 BCX0&quot;&gt;&lt;span style=&quot;-webkit-user-drag: none; -webkit-tap-highlight-color: transparent; margin: 0px; padding: 0px; user-select: text; font-variant-ligatures: none !important; color: rgb(13, 13, 13); font-size: 12pt; line-height: 20.5042px; font-family: Calibri, Calibri_EmbeddedFont, Calibri_MSFontService, sans-serif; font-weight: bold;&quot; class=&quot;TextRun SCXW203048722 BCX0&quot; lang=&quot;PT-BR&quot; data-contrast=&quot;none&quot;&gt;&lt;font style=&quot;vertical-align: inherit;&quot;&gt;&lt;font style=&quot;vertical-align: inherit;&quot;&gt;Objetivo: &lt;/font&gt;&lt;/font&gt;&lt;/span&gt;&lt;span style=&quot;-webkit-user-drag: none; -webkit-tap-highlight-color: transparent; margin: 0px; padding: 0px; user-select: text; font-variant-ligatures: none !important; color: rgb(13, 13, 13); font-size: 12pt; line-height: 20.5042px; font-family: Calibri, Calibri_EmbeddedFont, Calibri_MSFontService, sans-serif;&quot; class=&quot;TextRun SCXW203048722 BCX0&quot; lang=&quot;PT-BR&quot; data-contrast=&quot;none&quot;&gt;&lt;font style=&quot;vertical-align: inherit;&quot;&gt;&lt;font style=&quot;vertical-align: inherit;&quot;&gt;Registrar os pedidos feitos pelos clientes de forma precisa e eficiente.&lt;/font&gt;&lt;/font&gt;&lt;/span&gt;&lt;span style=&quot;-webkit-user-drag: none; -webkit-tap-highlight-color: transparent; margin: 0px; padding: 0px; user-select: text; font-size: 12pt; line-height: 20.5042px; font-family: Calibri, Calibri_EmbeddedFont, Calibri_MSFontService, sans-serif; color: rgb(13, 13, 13);&quot; data-ccp-props=&quot;{&amp;quot;335557856&amp;quot;:16777215,&amp;quot;335559739&amp;quot;:0}&quot; class=&quot;EOP SCXW203048722 BCX0&quot;&gt;&amp;nbsp;&lt;/span&gt;&lt;/p&gt;&lt;/li&gt;&lt;li style=&quot;-webkit-user-drag: none; -webkit-tap-highlight-color: transparent; margin: 0px 0px 0px 24px; padding: 0px; user-select: text; clear: both; cursor: text; overflow: visible; position: relative; direction: ltr; display: block; font-size: 12pt; font-family: Calibri, Calibri_MSFontService, sans-serif; vertical-align: baseline;&quot; class=&quot;OutlineElement Ltr SCXW203048722 BCX0&quot; role=&quot;listitem&quot; data-aria-level=&quot;1&quot; data-aria-posinset=&quot;3&quot; aria-setsize=&quot;-1&quot; data-list-defn-props=&quot;{&amp;quot;335552541&amp;quot;:1,&amp;quot;335559685&amp;quot;:720,&amp;quot;335559991&amp;quot;:360,&amp;quot;469769226&amp;quot;:&amp;quot;Symbol&amp;quot;,&amp;quot;469769242&amp;quot;:[8226],&amp;quot;469777803&amp;quot;:&amp;quot;left&amp;quot;,&amp;quot;469777804&amp;quot;:&amp;quot;&amp;quot;,&amp;quot;469777815&amp;quot;:&amp;quot;hybridMultilevel&amp;quot;}&quot; data-listid=&quot;1&quot; data-font=&quot;Symbol&quot; data-leveltext=&quot;&quot;&gt;&lt;p style=&quot;-webkit-user-drag: none; -webkit-tap-highlight-color: transparent; margin: 0px; padding: 0px; user-select: text; overflow-wrap: break-word; white-space-collapse: preserve; vertical-align: baseline; font-kerning: none; color: windowtext;&quot; class=&quot;Paragraph SCXW203048722 BCX0&quot;&gt;&lt;span style=&quot;-webkit-user-drag: none; -webkit-tap-highlight-color: transparent; margin: 0px; padding: 0px; user-select: text; font-variant-ligatures: none !important; color: rgb(13, 13, 13); font-size: 12pt; line-height: 20.5042px; font-family: Calibri, Calibri_EmbeddedFont, Calibri_MSFontService, sans-serif; font-weight: bold;&quot; class=&quot;TextRun SCXW203048722 BCX0&quot; lang=&quot;PT-BR&quot; data-contrast=&quot;none&quot;&gt;&lt;font style=&quot;vertical-align: inherit;&quot;&gt;&lt;font style=&quot;vertical-align: inherit;&quot;&gt;Trabalhadores Envolvidos: &lt;/font&gt;&lt;/font&gt;&lt;/span&gt;&lt;span style=&quot;-webkit-user-drag: none; -webkit-tap-highlight-color: transparent; margin: 0px; padding: 0px; user-select: text; font-variant-ligatures: none !important; color: rgb(13, 13, 13); font-size: 12pt; line-height: 20.5042px; font-family: Calibri, Calibri_EmbeddedFont, Calibri_MSFontService, sans-serif;&quot; class=&quot;TextRun SCXW203048722 BCX0&quot; lang=&quot;PT-BR&quot; data-contrast=&quot;none&quot;&gt;&lt;font style=&quot;vertical-align: inherit;&quot;&gt;&lt;font style=&quot;vertical-align: inherit;&quot;&gt;Atendente.&lt;/font&gt;&lt;/font&gt;&lt;/span&gt;&lt;span style=&quot;-webkit-user-drag: none; -webkit-tap-highlight-color: transparent; margin: 0px; padding: 0px; user-select: text; font-size: 12pt; line-height: 20.5042px; font-family: Calibri, Calibri_EmbeddedFont, Calibri_MSFontService, sans-serif; color: rgb(13, 13, 13);&quot; data-ccp-props=&quot;{&amp;quot;335557856&amp;quot;:16777215,&amp;quot;335559739&amp;quot;:0}&quot; class=&quot;EOP SCXW203048722 BCX0&quot;&gt;&amp;nbsp;&lt;/span&gt;&lt;/p&gt;&lt;/li&gt;&lt;/ul&gt;&lt;/div&gt;" style="text;html=1;align=center;verticalAlign=middle;whiteSpace=wrap;rounded=0;fontSize=16;" vertex="1" parent="1">
          <mxGeometry x="305" y="261" width="326" height="114" as="geometry" />
        </mxCell>
        <mxCell id="Y9XDCs3cdz9xWgN9fsB4-22" style="edgeStyle=none;curved=1;rounded=0;orthogonalLoop=1;jettySize=auto;html=1;entryX=-0.01;entryY=0.178;entryDx=0;entryDy=0;entryPerimeter=0;fontSize=12;startSize=8;endSize=8;" edge="1" parent="1" source="Y9XDCs3cdz9xWgN9fsB4-1" target="Y9XDCs3cdz9xWgN9fsB4-21">
          <mxGeometry relative="1" as="geometry" />
        </mxCell>
        <mxCell id="Y9XDCs3cdz9xWgN9fsB4-30" style="edgeStyle=none;curved=1;rounded=0;orthogonalLoop=1;jettySize=auto;html=1;exitX=0;exitY=0.5;exitDx=0;exitDy=0;entryX=1;entryY=0.5;entryDx=0;entryDy=0;fontSize=12;startSize=8;endSize=8;" edge="1" parent="1" source="Y9XDCs3cdz9xWgN9fsB4-24" target="Y9XDCs3cdz9xWgN9fsB4-28">
          <mxGeometry relative="1" as="geometry" />
        </mxCell>
        <mxCell id="Y9XDCs3cdz9xWgN9fsB4-34" style="edgeStyle=none;curved=1;rounded=0;orthogonalLoop=1;jettySize=auto;html=1;exitX=0;exitY=1;exitDx=0;exitDy=0;entryX=1;entryY=0.5;entryDx=0;entryDy=0;fontSize=12;startSize=8;endSize=8;" edge="1" parent="1" source="Y9XDCs3cdz9xWgN9fsB4-24" target="Y9XDCs3cdz9xWgN9fsB4-33">
          <mxGeometry relative="1" as="geometry" />
        </mxCell>
        <mxCell id="Y9XDCs3cdz9xWgN9fsB4-35" style="edgeStyle=none;curved=1;rounded=0;orthogonalLoop=1;jettySize=auto;html=1;entryX=0.5;entryY=1;entryDx=0;entryDy=0;fontSize=12;startSize=8;endSize=8;" edge="1" parent="1" source="Y9XDCs3cdz9xWgN9fsB4-24" target="Y9XDCs3cdz9xWgN9fsB4-25">
          <mxGeometry relative="1" as="geometry" />
        </mxCell>
        <mxCell id="Y9XDCs3cdz9xWgN9fsB4-36" value="&lt;font style=&quot;vertical-align: inherit;&quot;&gt;&lt;font style=&quot;vertical-align: inherit;&quot;&gt;Recebe&lt;/font&gt;&lt;/font&gt;" style="edgeLabel;html=1;align=center;verticalAlign=middle;resizable=0;points=[];fontSize=12;" vertex="1" connectable="0" parent="Y9XDCs3cdz9xWgN9fsB4-35">
          <mxGeometry x="-0.1746" y="2" relative="1" as="geometry">
            <mxPoint as="offset" />
          </mxGeometry>
        </mxCell>
        <mxCell id="Y9XDCs3cdz9xWgN9fsB4-24" value="&lt;font style=&quot;vertical-align: inherit;&quot;&gt;&lt;font style=&quot;vertical-align: inherit;&quot;&gt;Receber&lt;/font&gt;&lt;/font&gt;&lt;div&gt;&lt;font style=&quot;vertical-align: inherit;&quot;&gt;&lt;font style=&quot;vertical-align: inherit;&quot;&gt;&lt;font style=&quot;vertical-align: inherit;&quot;&gt;&lt;font style=&quot;vertical-align: inherit;&quot;&gt;Pedido&lt;/font&gt;&lt;/font&gt;&lt;/font&gt;&lt;/font&gt;&lt;/div&gt;" style="ellipse;whiteSpace=wrap;html=1;aspect=fixed;" vertex="1" parent="1">
          <mxGeometry x="190" y="550" width="64" height="64" as="geometry" />
        </mxCell>
        <mxCell id="Y9XDCs3cdz9xWgN9fsB4-25" value="&lt;font style=&quot;vertical-align: inherit;&quot;&gt;&lt;font style=&quot;vertical-align: inherit;&quot;&gt;Cliente&lt;/font&gt;&lt;/font&gt;" style="rounded=0;whiteSpace=wrap;html=1;" vertex="1" parent="1">
          <mxGeometry x="182.75" y="419" width="78.5" height="41" as="geometry" />
        </mxCell>
        <mxCell id="Y9XDCs3cdz9xWgN9fsB4-28" value="&lt;font style=&quot;vertical-align: inherit;&quot;&gt;&lt;font style=&quot;vertical-align: inherit;&quot;&gt;&lt;font style=&quot;vertical-align: inherit;&quot;&gt;&lt;font style=&quot;vertical-align: inherit;&quot;&gt;&lt;font style=&quot;vertical-align: inherit;&quot;&gt;&lt;font style=&quot;vertical-align: inherit;&quot;&gt;Cliente&lt;/font&gt;&lt;/font&gt;&lt;/font&gt;&lt;/font&gt;&lt;/font&gt;&lt;/font&gt;" style="rounded=0;whiteSpace=wrap;html=1;" vertex="1" parent="1">
          <mxGeometry x="58" y="518" width="71" height="30" as="geometry" />
        </mxCell>
        <mxCell id="Y9XDCs3cdz9xWgN9fsB4-31" value="&lt;div style=&quot;-webkit-user-drag: none; -webkit-tap-highlight-color: transparent; margin: 0px; padding: 0px; user-select: text; clear: both; cursor: text; overflow: visible; position: relative; direction: ltr; font-family: &amp;quot;Segoe UI&amp;quot;, &amp;quot;Segoe UI Web&amp;quot;, Arial, Verdana, sans-serif; font-size: 12px; text-align: start;&quot; class=&quot;OutlineElement Ltr SCXW221364305 BCX0&quot;&gt;&lt;p style=&quot;-webkit-user-drag: none; -webkit-tap-highlight-color: transparent; margin: 20px 0px; padding: 0px; user-select: text; overflow-wrap: break-word; white-space-collapse: preserve; vertical-align: baseline; font-kerning: none; color: windowtext;&quot; class=&quot;Paragraph SCXW221364305 BCX0&quot;&gt;&lt;span style=&quot;-webkit-user-drag: none; -webkit-tap-highlight-color: transparent; margin: 0px; padding: 0px; user-select: text; font-variant-ligatures: none !important; color: rgb(13, 13, 13); font-size: 12pt; line-height: 20.5042px; font-family: Calibri, Calibri_EmbeddedFont, Calibri_MSFontService, sans-serif; font-weight: bold;&quot; class=&quot;TextRun SCXW221364305 BCX0&quot; lang=&quot;PT-BR&quot; data-contrast=&quot;none&quot;&gt;&lt;font style=&quot;vertical-align: inherit;&quot;&gt;&lt;font style=&quot;vertical-align: inherit;&quot;&gt;Receber pedido:&lt;/font&gt;&lt;/font&gt;&lt;/span&gt;&lt;span style=&quot;-webkit-user-drag: none; -webkit-tap-highlight-color: transparent; margin: 0px; padding: 0px; user-select: text; font-size: 12pt; line-height: 20.5042px; font-family: Calibri, Calibri_EmbeddedFont, Calibri_MSFontService, sans-serif; color: rgb(13, 13, 13);&quot; data-ccp-props=&quot;{&amp;quot;335557856&amp;quot;:16777215,&amp;quot;335559738&amp;quot;:300,&amp;quot;335559739&amp;quot;:300}&quot; class=&quot;EOP SCXW221364305 BCX0&quot;&gt;&amp;nbsp;&lt;/span&gt;&lt;/p&gt;&lt;/div&gt;&lt;div style=&quot;-webkit-user-drag: none; -webkit-tap-highlight-color: transparent; margin: 0px; padding: 0px; user-select: text; position: relative; font-family: &amp;quot;Segoe UI&amp;quot;, &amp;quot;Segoe UI Web&amp;quot;, Arial, Verdana, sans-serif; font-size: 12px; text-align: start;&quot; class=&quot;ListContainerWrapper SCXW221364305 BCX0&quot;&gt;&lt;ul style=&quot;-webkit-user-drag: none; -webkit-tap-highlight-color: transparent; margin: 0px; padding: 0px; user-select: text; cursor: text; font-family: verdana; overflow: visible;&quot; role=&quot;list&quot; class=&quot;BulletListStyle1 SCXW221364305 BCX0&quot;&gt;&lt;li style=&quot;-webkit-user-drag: none; -webkit-tap-highlight-color: transparent; margin: 0px 0px 0px 24px; padding: 0px; user-select: text; clear: both; cursor: text; overflow: visible; position: relative; direction: ltr; display: block; font-size: 12pt; font-family: Calibri, Calibri_MSFontService, sans-serif; vertical-align: baseline;&quot; class=&quot;OutlineElement Ltr SCXW221364305 BCX0&quot; role=&quot;listitem&quot; data-aria-level=&quot;1&quot; data-aria-posinset=&quot;4&quot; aria-setsize=&quot;-1&quot; data-list-defn-props=&quot;{&amp;quot;335552541&amp;quot;:1,&amp;quot;335559685&amp;quot;:720,&amp;quot;335559991&amp;quot;:360,&amp;quot;469769226&amp;quot;:&amp;quot;Symbol&amp;quot;,&amp;quot;469769242&amp;quot;:[8226],&amp;quot;469777803&amp;quot;:&amp;quot;left&amp;quot;,&amp;quot;469777804&amp;quot;:&amp;quot;&amp;quot;,&amp;quot;469777815&amp;quot;:&amp;quot;hybridMultilevel&amp;quot;}&quot; data-listid=&quot;1&quot; data-font=&quot;Symbol&quot; data-leveltext=&quot;&quot;&gt;&lt;p style=&quot;-webkit-user-drag: none; -webkit-tap-highlight-color: transparent; margin: 0px; padding: 0px; user-select: text; overflow-wrap: break-word; white-space-collapse: preserve; vertical-align: baseline; font-kerning: none; color: windowtext;&quot; class=&quot;Paragraph SCXW221364305 BCX0&quot;&gt;&lt;span style=&quot;-webkit-user-drag: none; -webkit-tap-highlight-color: transparent; margin: 0px; padding: 0px; user-select: text; font-variant-ligatures: none !important; color: rgb(13, 13, 13); font-size: 12pt; line-height: 20.5042px; font-family: Calibri, Calibri_EmbeddedFont, Calibri_MSFontService, sans-serif; font-weight: bold;&quot; class=&quot;TextRun SCXW221364305 BCX0&quot; lang=&quot;PT-BR&quot; data-contrast=&quot;none&quot;&gt;&lt;font style=&quot;vertical-align: inherit;&quot;&gt;&lt;font style=&quot;vertical-align: inherit;&quot;&gt;Evento: &lt;/font&gt;&lt;/font&gt;&lt;/span&gt;&lt;span style=&quot;-webkit-user-drag: none; -webkit-tap-highlight-color: transparent; margin: 0px; padding: 0px; user-select: text; font-variant-ligatures: none !important; color: rgb(13, 13, 13); font-size: 12pt; line-height: 20.5042px; font-family: Calibri, Calibri_EmbeddedFont, Calibri_MSFontService, sans-serif;&quot; class=&quot;TextRun SCXW221364305 BCX0&quot; lang=&quot;PT-BR&quot; data-contrast=&quot;none&quot;&gt;&lt;font style=&quot;vertical-align: inherit;&quot;&gt;&lt;font style=&quot;vertical-align: inherit;&quot;&gt;Pedido é recebido pelo sistema.&lt;/font&gt;&lt;/font&gt;&lt;/span&gt;&lt;span style=&quot;-webkit-user-drag: none; -webkit-tap-highlight-color: transparent; margin: 0px; padding: 0px; user-select: text; font-size: 12pt; line-height: 20.5042px; font-family: Calibri, Calibri_EmbeddedFont, Calibri_MSFontService, sans-serif; color: rgb(13, 13, 13);&quot; data-ccp-props=&quot;{&amp;quot;335557856&amp;quot;:16777215,&amp;quot;335559739&amp;quot;:0}&quot; class=&quot;EOP SCXW221364305 BCX0&quot;&gt;&amp;nbsp;&lt;/span&gt;&lt;/p&gt;&lt;/li&gt;&lt;li style=&quot;-webkit-user-drag: none; -webkit-tap-highlight-color: transparent; margin: 0px 0px 0px 24px; padding: 0px; user-select: text; clear: both; cursor: text; overflow: visible; position: relative; direction: ltr; display: block; font-size: 12pt; font-family: Calibri, Calibri_MSFontService, sans-serif; vertical-align: baseline;&quot; class=&quot;OutlineElement Ltr SCXW221364305 BCX0&quot; role=&quot;listitem&quot; data-aria-level=&quot;1&quot; data-aria-posinset=&quot;5&quot; aria-setsize=&quot;-1&quot; data-list-defn-props=&quot;{&amp;quot;335552541&amp;quot;:1,&amp;quot;335559685&amp;quot;:720,&amp;quot;335559991&amp;quot;:360,&amp;quot;469769226&amp;quot;:&amp;quot;Symbol&amp;quot;,&amp;quot;469769242&amp;quot;:[8226],&amp;quot;469777803&amp;quot;:&amp;quot;left&amp;quot;,&amp;quot;469777804&amp;quot;:&amp;quot;&amp;quot;,&amp;quot;469777815&amp;quot;:&amp;quot;hybridMultilevel&amp;quot;}&quot; data-listid=&quot;1&quot; data-font=&quot;Symbol&quot; data-leveltext=&quot;&quot;&gt;&lt;p style=&quot;-webkit-user-drag: none; -webkit-tap-highlight-color: transparent; margin: 0px; padding: 0px; user-select: text; overflow-wrap: break-word; white-space-collapse: preserve; vertical-align: baseline; font-kerning: none; color: windowtext;&quot; class=&quot;Paragraph SCXW221364305 BCX0&quot;&gt;&lt;span style=&quot;-webkit-user-drag: none; -webkit-tap-highlight-color: transparent; margin: 0px; padding: 0px; user-select: text; font-variant-ligatures: none !important; color: rgb(13, 13, 13); font-size: 12pt; line-height: 20.5042px; font-family: Calibri, Calibri_EmbeddedFont, Calibri_MSFontService, sans-serif; font-weight: bold;&quot; class=&quot;TextRun SCXW221364305 BCX0&quot; lang=&quot;PT-BR&quot; data-contrast=&quot;none&quot;&gt;&lt;font style=&quot;vertical-align: inherit;&quot;&gt;&lt;font style=&quot;vertical-align: inherit;&quot;&gt;Objetivo: &lt;/font&gt;&lt;/font&gt;&lt;/span&gt;&lt;span style=&quot;-webkit-user-drag: none; -webkit-tap-highlight-color: transparent; margin: 0px; padding: 0px; user-select: text; font-variant-ligatures: none !important; color: rgb(13, 13, 13); font-size: 12pt; line-height: 20.5042px; font-family: Calibri, Calibri_EmbeddedFont, Calibri_MSFontService, sans-serif;&quot; class=&quot;TextRun SCXW221364305 BCX0&quot; lang=&quot;PT-BR&quot; data-contrast=&quot;none&quot;&gt;&lt;font style=&quot;vertical-align: inherit;&quot;&gt;&lt;font style=&quot;vertical-align: inherit;&quot;&gt;Integrar o pedido ao sistema da pizzaria para facilitar o fluxo de produção.&lt;/font&gt;&lt;/font&gt;&lt;/span&gt;&lt;span style=&quot;-webkit-user-drag: none; -webkit-tap-highlight-color: transparent; margin: 0px; padding: 0px; user-select: text; font-size: 12pt; line-height: 20.5042px; font-family: Calibri, Calibri_EmbeddedFont, Calibri_MSFontService, sans-serif; color: rgb(13, 13, 13);&quot; data-ccp-props=&quot;{&amp;quot;335557856&amp;quot;:16777215,&amp;quot;335559739&amp;quot;:0}&quot; class=&quot;EOP SCXW221364305 BCX0&quot;&gt;&amp;nbsp;&lt;/span&gt;&lt;/p&gt;&lt;/li&gt;&lt;li style=&quot;-webkit-user-drag: none; -webkit-tap-highlight-color: transparent; margin: 0px 0px 0px 24px; padding: 0px; user-select: text; clear: both; cursor: text; overflow: visible; position: relative; direction: ltr; display: block; font-size: 12pt; font-family: Calibri, Calibri_MSFontService, sans-serif; vertical-align: baseline;&quot; class=&quot;OutlineElement Ltr SCXW221364305 BCX0&quot; role=&quot;listitem&quot; data-aria-level=&quot;1&quot; data-aria-posinset=&quot;6&quot; aria-setsize=&quot;-1&quot; data-list-defn-props=&quot;{&amp;quot;335552541&amp;quot;:1,&amp;quot;335559685&amp;quot;:720,&amp;quot;335559991&amp;quot;:360,&amp;quot;469769226&amp;quot;:&amp;quot;Symbol&amp;quot;,&amp;quot;469769242&amp;quot;:[8226],&amp;quot;469777803&amp;quot;:&amp;quot;left&amp;quot;,&amp;quot;469777804&amp;quot;:&amp;quot;&amp;quot;,&amp;quot;469777815&amp;quot;:&amp;quot;hybridMultilevel&amp;quot;}&quot; data-listid=&quot;1&quot; data-font=&quot;Symbol&quot; data-leveltext=&quot;&quot;&gt;&lt;p style=&quot;-webkit-user-drag: none; -webkit-tap-highlight-color: transparent; margin: 0px; padding: 0px; user-select: text; overflow-wrap: break-word; white-space-collapse: preserve; vertical-align: baseline; font-kerning: none; color: windowtext;&quot; class=&quot;Paragraph SCXW221364305 BCX0&quot;&gt;&lt;span style=&quot;-webkit-user-drag: none; -webkit-tap-highlight-color: transparent; margin: 0px; padding: 0px; user-select: text; font-variant-ligatures: none !important; color: rgb(13, 13, 13); font-size: 12pt; line-height: 20.5042px; font-family: Calibri, Calibri_EmbeddedFont, Calibri_MSFontService, sans-serif; font-weight: bold;&quot; class=&quot;TextRun SCXW221364305 BCX0&quot; lang=&quot;PT-BR&quot; data-contrast=&quot;none&quot;&gt;&lt;font style=&quot;vertical-align: inherit;&quot;&gt;&lt;font style=&quot;vertical-align: inherit;&quot;&gt;Trabalhadores Envolvidos: &lt;/font&gt;&lt;/font&gt;&lt;/span&gt;&lt;span style=&quot;-webkit-user-drag: none; -webkit-tap-highlight-color: transparent; margin: 0px; padding: 0px; user-select: text; font-variant-ligatures: none !important; color: rgb(13, 13, 13); font-size: 12pt; line-height: 20.5042px; font-family: Calibri, Calibri_EmbeddedFont, Calibri_MSFontService, sans-serif;&quot; class=&quot;TextRun SCXW221364305 BCX0&quot; lang=&quot;PT-BR&quot; data-contrast=&quot;none&quot;&gt;&lt;font style=&quot;vertical-align: inherit;&quot;&gt;&lt;font style=&quot;vertical-align: inherit;&quot;&gt;Equipe de TI, Atendente.&lt;/font&gt;&lt;/font&gt;&lt;/span&gt;&lt;span style=&quot;-webkit-user-drag: none; -webkit-tap-highlight-color: transparent; margin: 0px; padding: 0px; user-select: text; font-size: 12pt; line-height: 20.5042px; font-family: Calibri, Calibri_EmbeddedFont, Calibri_MSFontService, sans-serif; color: rgb(13, 13, 13);&quot; data-ccp-props=&quot;{&amp;quot;335557856&amp;quot;:16777215,&amp;quot;335559739&amp;quot;:0}&quot; class=&quot;EOP SCXW221364305 BCX0&quot;&gt;&amp;nbsp;&lt;/span&gt;&lt;/p&gt;&lt;/li&gt;&lt;/ul&gt;&lt;/div&gt;" style="text;html=1;align=center;verticalAlign=middle;whiteSpace=wrap;rounded=0;fontSize=16;" vertex="1" parent="1">
          <mxGeometry x="305" y="557" width="306" height="139" as="geometry" />
        </mxCell>
        <mxCell id="Y9XDCs3cdz9xWgN9fsB4-32" style="edgeStyle=none;curved=1;rounded=0;orthogonalLoop=1;jettySize=auto;html=1;entryX=-0.002;entryY=0.165;entryDx=0;entryDy=0;entryPerimeter=0;fontSize=12;startSize=8;endSize=8;" edge="1" parent="1" source="Y9XDCs3cdz9xWgN9fsB4-24" target="Y9XDCs3cdz9xWgN9fsB4-31">
          <mxGeometry relative="1" as="geometry" />
        </mxCell>
        <mxCell id="Y9XDCs3cdz9xWgN9fsB4-33" value="&lt;font style=&quot;vertical-align: inherit;&quot;&gt;&lt;font style=&quot;vertical-align: inherit;&quot;&gt;Pedido&lt;/font&gt;&lt;/font&gt;" style="rounded=0;whiteSpace=wrap;html=1;" vertex="1" parent="1">
          <mxGeometry x="58" y="625" width="71" height="30" as="geometry" />
        </mxCell>
        <mxCell id="Y9XDCs3cdz9xWgN9fsB4-39" style="edgeStyle=none;curved=1;rounded=0;orthogonalLoop=1;jettySize=auto;html=1;exitX=0;exitY=0;exitDx=0;exitDy=0;entryX=1;entryY=0.5;entryDx=0;entryDy=0;fontSize=12;startSize=8;endSize=8;" edge="1" parent="1" source="Y9XDCs3cdz9xWgN9fsB4-37" target="Y9XDCs3cdz9xWgN9fsB4-38">
          <mxGeometry relative="1" as="geometry" />
        </mxCell>
        <mxCell id="Y9XDCs3cdz9xWgN9fsB4-41" style="edgeStyle=none;curved=1;rounded=0;orthogonalLoop=1;jettySize=auto;html=1;exitX=0;exitY=1;exitDx=0;exitDy=0;entryX=1;entryY=0.5;entryDx=0;entryDy=0;fontSize=12;startSize=8;endSize=8;" edge="1" parent="1" source="Y9XDCs3cdz9xWgN9fsB4-37" target="Y9XDCs3cdz9xWgN9fsB4-40">
          <mxGeometry relative="1" as="geometry" />
        </mxCell>
        <mxCell id="Y9XDCs3cdz9xWgN9fsB4-37" value="&lt;font style=&quot;vertical-align: inherit;&quot;&gt;&lt;font style=&quot;vertical-align: inherit;&quot;&gt;Preparar&amp;nbsp;&lt;/font&gt;&lt;/font&gt;&lt;div&gt;&lt;font style=&quot;vertical-align: inherit;&quot;&gt;&lt;font style=&quot;vertical-align: inherit;&quot;&gt;ingredientes&lt;/font&gt;&lt;/font&gt;&lt;/div&gt;" style="ellipse;whiteSpace=wrap;html=1;aspect=fixed;" vertex="1" parent="1">
          <mxGeometry x="190" y="916" width="64" height="64" as="geometry" />
        </mxCell>
        <mxCell id="Y9XDCs3cdz9xWgN9fsB4-38" value="&lt;font style=&quot;vertical-align: inherit;&quot;&gt;&lt;font style=&quot;vertical-align: inherit;&quot;&gt;Pedido&lt;/font&gt;&lt;/font&gt;" style="rounded=0;whiteSpace=wrap;html=1;" vertex="1" parent="1">
          <mxGeometry x="58" y="886" width="71" height="30" as="geometry" />
        </mxCell>
        <mxCell id="Y9XDCs3cdz9xWgN9fsB4-40" value="&lt;font style=&quot;vertical-align: inherit;&quot;&gt;&lt;font style=&quot;vertical-align: inherit;&quot;&gt;&lt;font style=&quot;vertical-align: inherit;&quot;&gt;&lt;font style=&quot;vertical-align: inherit;&quot;&gt;Pizza&lt;/font&gt;&lt;/font&gt;&lt;/font&gt;&lt;/font&gt;" style="rounded=0;whiteSpace=wrap;html=1;" vertex="1" parent="1">
          <mxGeometry x="58" y="977" width="71" height="30" as="geometry" />
        </mxCell>
        <mxCell id="Y9XDCs3cdz9xWgN9fsB4-43" style="edgeStyle=none;curved=1;rounded=0;orthogonalLoop=1;jettySize=auto;html=1;exitX=0.5;exitY=1;exitDx=0;exitDy=0;entryX=0.5;entryY=0;entryDx=0;entryDy=0;fontSize=12;startSize=8;endSize=8;" edge="1" parent="1" source="Y9XDCs3cdz9xWgN9fsB4-42" target="Y9XDCs3cdz9xWgN9fsB4-37">
          <mxGeometry relative="1" as="geometry" />
        </mxCell>
        <mxCell id="Y9XDCs3cdz9xWgN9fsB4-44" value="Prepara" style="edgeLabel;html=1;align=center;verticalAlign=middle;resizable=0;points=[];fontSize=12;" vertex="1" connectable="0" parent="Y9XDCs3cdz9xWgN9fsB4-43">
          <mxGeometry x="-0.0635" y="-2" relative="1" as="geometry">
            <mxPoint as="offset" />
          </mxGeometry>
        </mxCell>
        <mxCell id="Y9XDCs3cdz9xWgN9fsB4-42" value="&lt;font style=&quot;vertical-align: inherit;&quot;&gt;&lt;font style=&quot;vertical-align: inherit;&quot;&gt;Equipe&lt;/font&gt;&lt;/font&gt;&lt;div&gt;&lt;font style=&quot;vertical-align: inherit;&quot;&gt;&lt;font style=&quot;vertical-align: inherit;&quot;&gt;&lt;font style=&quot;vertical-align: inherit;&quot;&gt;&lt;font style=&quot;vertical-align: inherit;&quot;&gt;Cozinha&lt;/font&gt;&lt;/font&gt;&lt;/font&gt;&lt;/font&gt;&lt;/div&gt;" style="rounded=0;whiteSpace=wrap;html=1;" vertex="1" parent="1">
          <mxGeometry x="182.75" y="800" width="78.5" height="41" as="geometry" />
        </mxCell>
        <mxCell id="Y9XDCs3cdz9xWgN9fsB4-45" value="&lt;div style=&quot;-webkit-user-drag: none; -webkit-tap-highlight-color: transparent; margin: 0px; padding: 0px; user-select: text; clear: both; cursor: text; overflow: visible; position: relative; direction: ltr; font-family: &amp;quot;Segoe UI&amp;quot;, &amp;quot;Segoe UI Web&amp;quot;, Arial, Verdana, sans-serif; font-size: 12px; text-align: start;&quot; class=&quot;OutlineElement Ltr SCXW58492860 BCX0&quot;&gt;&lt;p style=&quot;-webkit-user-drag: none; -webkit-tap-highlight-color: transparent; margin: 20px 0px; padding: 0px; user-select: text; overflow-wrap: break-word; white-space-collapse: preserve; vertical-align: baseline; font-kerning: none; color: windowtext;&quot; class=&quot;Paragraph SCXW58492860 BCX0&quot;&gt;&lt;span style=&quot;-webkit-user-drag: none; -webkit-tap-highlight-color: transparent; margin: 0px; padding: 0px; user-select: text; font-variant-ligatures: none !important; color: rgb(13, 13, 13); font-size: 12pt; line-height: 20.5042px; font-family: Calibri, Calibri_EmbeddedFont, Calibri_MSFontService, sans-serif; font-weight: bold;&quot; class=&quot;TextRun SCXW58492860 BCX0&quot; lang=&quot;PT-BR&quot; data-contrast=&quot;none&quot;&gt;Preparar Ingredientes:&lt;/span&gt;&lt;span style=&quot;-webkit-user-drag: none; -webkit-tap-highlight-color: transparent; margin: 0px; padding: 0px; user-select: text; font-size: 12pt; line-height: 20.5042px; font-family: Calibri, Calibri_EmbeddedFont, Calibri_MSFontService, sans-serif; color: rgb(13, 13, 13);&quot; data-ccp-props=&quot;{&amp;quot;335557856&amp;quot;:16777215,&amp;quot;335559738&amp;quot;:300,&amp;quot;335559739&amp;quot;:300}&quot; class=&quot;EOP SCXW58492860 BCX0&quot;&gt;&amp;nbsp;&lt;/span&gt;&lt;/p&gt;&lt;/div&gt;&lt;div style=&quot;-webkit-user-drag: none; -webkit-tap-highlight-color: transparent; margin: 0px; padding: 0px; user-select: text; position: relative; font-family: &amp;quot;Segoe UI&amp;quot;, &amp;quot;Segoe UI Web&amp;quot;, Arial, Verdana, sans-serif; font-size: 12px; text-align: start;&quot; class=&quot;ListContainerWrapper SCXW58492860 BCX0&quot;&gt;&lt;ul style=&quot;-webkit-user-drag: none; -webkit-tap-highlight-color: transparent; margin: 0px; padding: 0px; user-select: text; cursor: text; font-family: verdana; overflow: visible;&quot; role=&quot;list&quot; class=&quot;BulletListStyle1 SCXW58492860 BCX0&quot;&gt;&lt;li style=&quot;-webkit-user-drag: none; -webkit-tap-highlight-color: transparent; margin: 0px 0px 0px 24px; padding: 0px; user-select: text; clear: both; cursor: text; overflow: visible; position: relative; direction: ltr; display: block; font-size: 12pt; font-family: Calibri, Calibri_MSFontService, sans-serif; vertical-align: baseline;&quot; class=&quot;OutlineElement Ltr SCXW58492860 BCX0&quot; role=&quot;listitem&quot; data-aria-level=&quot;1&quot; data-aria-posinset=&quot;7&quot; aria-setsize=&quot;-1&quot; data-list-defn-props=&quot;{&amp;quot;335552541&amp;quot;:1,&amp;quot;335559685&amp;quot;:720,&amp;quot;335559991&amp;quot;:360,&amp;quot;469769226&amp;quot;:&amp;quot;Symbol&amp;quot;,&amp;quot;469769242&amp;quot;:[8226],&amp;quot;469777803&amp;quot;:&amp;quot;left&amp;quot;,&amp;quot;469777804&amp;quot;:&amp;quot;&amp;quot;,&amp;quot;469777815&amp;quot;:&amp;quot;hybridMultilevel&amp;quot;}&quot; data-listid=&quot;1&quot; data-font=&quot;Symbol&quot; data-leveltext=&quot;&quot;&gt;&lt;p style=&quot;-webkit-user-drag: none; -webkit-tap-highlight-color: transparent; margin: 0px; padding: 0px; user-select: text; overflow-wrap: break-word; white-space-collapse: preserve; vertical-align: baseline; font-kerning: none; color: windowtext;&quot; class=&quot;Paragraph SCXW58492860 BCX0&quot;&gt;&lt;span style=&quot;-webkit-user-drag: none; -webkit-tap-highlight-color: transparent; margin: 0px; padding: 0px; user-select: text; font-variant-ligatures: none !important; color: rgb(13, 13, 13); font-size: 12pt; line-height: 20.5042px; font-family: Calibri, Calibri_EmbeddedFont, Calibri_MSFontService, sans-serif; font-weight: bold;&quot; class=&quot;TextRun SCXW58492860 BCX0&quot; lang=&quot;PT-BR&quot; data-contrast=&quot;none&quot;&gt;Evento:&lt;/span&gt;&lt;span style=&quot;-webkit-user-drag: none; -webkit-tap-highlight-color: transparent; margin: 0px; padding: 0px; user-select: text; font-variant-ligatures: none !important; color: rgb(13, 13, 13); font-size: 12pt; line-height: 20.5042px; font-family: Calibri, Calibri_EmbeddedFont, Calibri_MSFontService, sans-serif;&quot; class=&quot;TextRun SCXW58492860 BCX0&quot; lang=&quot;PT-BR&quot; data-contrast=&quot;none&quot;&gt; Pedido é processado e enviado para a cozinha.&lt;/span&gt;&lt;span style=&quot;-webkit-user-drag: none; -webkit-tap-highlight-color: transparent; margin: 0px; padding: 0px; user-select: text; font-size: 12pt; line-height: 20.5042px; font-family: Calibri, Calibri_EmbeddedFont, Calibri_MSFontService, sans-serif; color: rgb(13, 13, 13);&quot; data-ccp-props=&quot;{&amp;quot;335557856&amp;quot;:16777215,&amp;quot;335559739&amp;quot;:0}&quot; class=&quot;EOP SCXW58492860 BCX0&quot;&gt;&amp;nbsp;&lt;/span&gt;&lt;/p&gt;&lt;/li&gt;&lt;li style=&quot;-webkit-user-drag: none; -webkit-tap-highlight-color: transparent; margin: 0px 0px 0px 24px; padding: 0px; user-select: text; clear: both; cursor: text; overflow: visible; position: relative; direction: ltr; display: block; font-size: 12pt; font-family: Calibri, Calibri_MSFontService, sans-serif; vertical-align: baseline;&quot; class=&quot;OutlineElement Ltr SCXW58492860 BCX0&quot; role=&quot;listitem&quot; data-aria-level=&quot;1&quot; data-aria-posinset=&quot;8&quot; aria-setsize=&quot;-1&quot; data-list-defn-props=&quot;{&amp;quot;335552541&amp;quot;:1,&amp;quot;335559685&amp;quot;:720,&amp;quot;335559991&amp;quot;:360,&amp;quot;469769226&amp;quot;:&amp;quot;Symbol&amp;quot;,&amp;quot;469769242&amp;quot;:[8226],&amp;quot;469777803&amp;quot;:&amp;quot;left&amp;quot;,&amp;quot;469777804&amp;quot;:&amp;quot;&amp;quot;,&amp;quot;469777815&amp;quot;:&amp;quot;hybridMultilevel&amp;quot;}&quot; data-listid=&quot;1&quot; data-font=&quot;Symbol&quot; data-leveltext=&quot;&quot;&gt;&lt;p style=&quot;-webkit-user-drag: none; -webkit-tap-highlight-color: transparent; margin: 0px; padding: 0px; user-select: text; overflow-wrap: break-word; white-space-collapse: preserve; vertical-align: baseline; font-kerning: none; color: windowtext;&quot; class=&quot;Paragraph SCXW58492860 BCX0&quot;&gt;&lt;span style=&quot;-webkit-user-drag: none; -webkit-tap-highlight-color: transparent; margin: 0px; padding: 0px; user-select: text; font-variant-ligatures: none !important; color: rgb(13, 13, 13); font-size: 12pt; line-height: 20.5042px; font-family: Calibri, Calibri_EmbeddedFont, Calibri_MSFontService, sans-serif; font-weight: bold;&quot; class=&quot;TextRun SCXW58492860 BCX0&quot; lang=&quot;PT-BR&quot; data-contrast=&quot;none&quot;&gt;Objetivo:&lt;/span&gt;&lt;span style=&quot;-webkit-user-drag: none; -webkit-tap-highlight-color: transparent; margin: 0px; padding: 0px; user-select: text; font-variant-ligatures: none !important; color: rgb(13, 13, 13); font-size: 12pt; line-height: 20.5042px; font-family: Calibri, Calibri_EmbeddedFont, Calibri_MSFontService, sans-serif;&quot; class=&quot;TextRun SCXW58492860 BCX0&quot; lang=&quot;PT-BR&quot; data-contrast=&quot;none&quot;&gt; Preparar os ingredientes necessários para a montagem das pizzas de acordo com as especificações do pedido.&lt;/span&gt;&lt;span style=&quot;-webkit-user-drag: none; -webkit-tap-highlight-color: transparent; margin: 0px; padding: 0px; user-select: text; font-size: 12pt; line-height: 20.5042px; font-family: Calibri, Calibri_EmbeddedFont, Calibri_MSFontService, sans-serif; color: rgb(13, 13, 13);&quot; data-ccp-props=&quot;{&amp;quot;335557856&amp;quot;:16777215,&amp;quot;335559739&amp;quot;:0}&quot; class=&quot;EOP SCXW58492860 BCX0&quot;&gt;&amp;nbsp;&lt;/span&gt;&lt;/p&gt;&lt;/li&gt;&lt;li style=&quot;-webkit-user-drag: none; -webkit-tap-highlight-color: transparent; margin: 0px 0px 0px 24px; padding: 0px; user-select: text; clear: both; cursor: text; overflow: visible; position: relative; direction: ltr; display: block; font-size: 12pt; font-family: Calibri, Calibri_MSFontService, sans-serif; vertical-align: baseline;&quot; class=&quot;OutlineElement Ltr SCXW58492860 BCX0&quot; role=&quot;listitem&quot; data-aria-level=&quot;1&quot; data-aria-posinset=&quot;9&quot; aria-setsize=&quot;-1&quot; data-list-defn-props=&quot;{&amp;quot;335552541&amp;quot;:1,&amp;quot;335559685&amp;quot;:720,&amp;quot;335559991&amp;quot;:360,&amp;quot;469769226&amp;quot;:&amp;quot;Symbol&amp;quot;,&amp;quot;469769242&amp;quot;:[8226],&amp;quot;469777803&amp;quot;:&amp;quot;left&amp;quot;,&amp;quot;469777804&amp;quot;:&amp;quot;&amp;quot;,&amp;quot;469777815&amp;quot;:&amp;quot;hybridMultilevel&amp;quot;}&quot; data-listid=&quot;1&quot; data-font=&quot;Symbol&quot; data-leveltext=&quot;&quot;&gt;&lt;p style=&quot;-webkit-user-drag: none; -webkit-tap-highlight-color: transparent; margin: 0px; padding: 0px; user-select: text; overflow-wrap: break-word; white-space-collapse: preserve; vertical-align: baseline; font-kerning: none; color: windowtext;&quot; class=&quot;Paragraph SCXW58492860 BCX0&quot;&gt;&lt;span style=&quot;-webkit-user-drag: none; -webkit-tap-highlight-color: transparent; margin: 0px; padding: 0px; user-select: text; font-variant-ligatures: none !important; color: rgb(13, 13, 13); font-size: 12pt; line-height: 20.5042px; font-family: Calibri, Calibri_EmbeddedFont, Calibri_MSFontService, sans-serif; font-weight: bold;&quot; class=&quot;TextRun SCXW58492860 BCX0&quot; lang=&quot;PT-BR&quot; data-contrast=&quot;none&quot;&gt;Trabalhadores Envolvidos:&lt;/span&gt;&lt;span style=&quot;-webkit-user-drag: none; -webkit-tap-highlight-color: transparent; margin: 0px; padding: 0px; user-select: text; font-variant-ligatures: none !important; color: rgb(13, 13, 13); font-size: 12pt; line-height: 20.5042px; font-family: Calibri, Calibri_EmbeddedFont, Calibri_MSFontService, sans-serif;&quot; class=&quot;TextRun SCXW58492860 BCX0&quot; lang=&quot;PT-BR&quot; data-contrast=&quot;none&quot;&gt; Equipe de Cozinha.&lt;/span&gt;&lt;span style=&quot;-webkit-user-drag: none; -webkit-tap-highlight-color: transparent; margin: 0px; padding: 0px; user-select: text; font-size: 12pt; line-height: 20.5042px; font-family: Calibri, Calibri_EmbeddedFont, Calibri_MSFontService, sans-serif; color: rgb(13, 13, 13);&quot; data-ccp-props=&quot;{&amp;quot;335557856&amp;quot;:16777215,&amp;quot;335559739&amp;quot;:0}&quot; class=&quot;EOP SCXW58492860 BCX0&quot;&gt;&amp;nbsp;&lt;/span&gt;&lt;/p&gt;&lt;/li&gt;&lt;/ul&gt;&lt;/div&gt;" style="text;html=1;align=center;verticalAlign=middle;whiteSpace=wrap;rounded=0;fontSize=16;" vertex="1" parent="1">
          <mxGeometry x="292" y="939" width="332" height="113" as="geometry" />
        </mxCell>
        <mxCell id="Y9XDCs3cdz9xWgN9fsB4-46" style="edgeStyle=none;curved=1;rounded=0;orthogonalLoop=1;jettySize=auto;html=1;exitX=1;exitY=0.5;exitDx=0;exitDy=0;entryX=0.008;entryY=0.085;entryDx=0;entryDy=0;entryPerimeter=0;fontSize=12;startSize=8;endSize=8;" edge="1" parent="1" source="Y9XDCs3cdz9xWgN9fsB4-37" target="Y9XDCs3cdz9xWgN9fsB4-45">
          <mxGeometry relative="1" as="geometry" />
        </mxCell>
        <mxCell id="Y9XDCs3cdz9xWgN9fsB4-51" style="edgeStyle=none;curved=1;rounded=0;orthogonalLoop=1;jettySize=auto;html=1;exitX=0;exitY=0.5;exitDx=0;exitDy=0;entryX=1;entryY=0.5;entryDx=0;entryDy=0;fontSize=12;startSize=8;endSize=8;" edge="1" parent="1" source="Y9XDCs3cdz9xWgN9fsB4-47" target="Y9XDCs3cdz9xWgN9fsB4-50">
          <mxGeometry relative="1" as="geometry" />
        </mxCell>
        <mxCell id="Y9XDCs3cdz9xWgN9fsB4-53" style="edgeStyle=none;curved=1;rounded=0;orthogonalLoop=1;jettySize=auto;html=1;exitX=0;exitY=1;exitDx=0;exitDy=0;entryX=1;entryY=0.5;entryDx=0;entryDy=0;fontSize=12;startSize=8;endSize=8;" edge="1" parent="1" source="Y9XDCs3cdz9xWgN9fsB4-47" target="Y9XDCs3cdz9xWgN9fsB4-52">
          <mxGeometry relative="1" as="geometry" />
        </mxCell>
        <mxCell id="Y9XDCs3cdz9xWgN9fsB4-55" style="edgeStyle=none;curved=1;rounded=0;orthogonalLoop=1;jettySize=auto;html=1;exitX=1;exitY=0.5;exitDx=0;exitDy=0;entryX=0;entryY=0.25;entryDx=0;entryDy=0;fontSize=12;startSize=8;endSize=8;" edge="1" parent="1" source="Y9XDCs3cdz9xWgN9fsB4-47" target="Y9XDCs3cdz9xWgN9fsB4-54">
          <mxGeometry relative="1" as="geometry" />
        </mxCell>
        <mxCell id="Y9XDCs3cdz9xWgN9fsB4-47" value="Montagem&lt;div&gt;das&lt;/div&gt;&lt;div&gt;Pizzas&lt;/div&gt;" style="ellipse;whiteSpace=wrap;html=1;aspect=fixed;" vertex="1" parent="1">
          <mxGeometry x="190" y="1284" width="64" height="64" as="geometry" />
        </mxCell>
        <mxCell id="Y9XDCs3cdz9xWgN9fsB4-49" style="edgeStyle=none;curved=1;rounded=0;orthogonalLoop=1;jettySize=auto;html=1;entryX=0.5;entryY=0;entryDx=0;entryDy=0;fontSize=12;startSize=8;endSize=8;" edge="1" parent="1" source="Y9XDCs3cdz9xWgN9fsB4-48" target="Y9XDCs3cdz9xWgN9fsB4-47">
          <mxGeometry relative="1" as="geometry" />
        </mxCell>
        <mxCell id="Y9XDCs3cdz9xWgN9fsB4-59" value="Monta" style="edgeLabel;html=1;align=center;verticalAlign=middle;resizable=0;points=[];fontSize=12;" vertex="1" connectable="0" parent="Y9XDCs3cdz9xWgN9fsB4-49">
          <mxGeometry x="-0.042" y="-2" relative="1" as="geometry">
            <mxPoint as="offset" />
          </mxGeometry>
        </mxCell>
        <mxCell id="Y9XDCs3cdz9xWgN9fsB4-48" value="Pizzaiolos" style="rounded=0;whiteSpace=wrap;html=1;" vertex="1" parent="1">
          <mxGeometry x="182.75" y="1175" width="78.5" height="41" as="geometry" />
        </mxCell>
        <mxCell id="Y9XDCs3cdz9xWgN9fsB4-50" value="&lt;font style=&quot;vertical-align: inherit;&quot;&gt;&lt;font style=&quot;vertical-align: inherit;&quot;&gt;&lt;font style=&quot;vertical-align: inherit;&quot;&gt;&lt;font style=&quot;vertical-align: inherit;&quot;&gt;Pizza&lt;/font&gt;&lt;/font&gt;&lt;/font&gt;&lt;/font&gt;" style="rounded=0;whiteSpace=wrap;html=1;" vertex="1" parent="1">
          <mxGeometry x="61" y="1274" width="71" height="30" as="geometry" />
        </mxCell>
        <mxCell id="Y9XDCs3cdz9xWgN9fsB4-52" value="&lt;font style=&quot;vertical-align: inherit;&quot;&gt;&lt;font style=&quot;vertical-align: inherit;&quot;&gt;Pedido&lt;/font&gt;&lt;/font&gt;" style="rounded=0;whiteSpace=wrap;html=1;" vertex="1" parent="1">
          <mxGeometry x="58" y="1357" width="71" height="30" as="geometry" />
        </mxCell>
        <mxCell id="Y9XDCs3cdz9xWgN9fsB4-54" value="&lt;div style=&quot;-webkit-user-drag: none; -webkit-tap-highlight-color: transparent; margin: 0px; padding: 0px; user-select: text; clear: both; cursor: text; overflow: visible; position: relative; direction: ltr; font-family: &amp;quot;Segoe UI&amp;quot;, &amp;quot;Segoe UI Web&amp;quot;, Arial, Verdana, sans-serif; font-size: 12px; text-align: start;&quot; class=&quot;OutlineElement Ltr SCXW16801394 BCX0&quot;&gt;&lt;p style=&quot;-webkit-user-drag: none; -webkit-tap-highlight-color: transparent; margin: 20px 0px; padding: 0px; user-select: text; overflow-wrap: break-word; white-space-collapse: preserve; vertical-align: baseline; font-kerning: none; color: windowtext;&quot; class=&quot;Paragraph SCXW16801394 BCX0&quot;&gt;&lt;span style=&quot;-webkit-user-drag: none; -webkit-tap-highlight-color: transparent; margin: 0px; padding: 0px; user-select: text; font-variant-ligatures: none !important; color: rgb(13, 13, 13); font-size: 12pt; line-height: 20.5042px; font-family: Calibri, Calibri_EmbeddedFont, Calibri_MSFontService, sans-serif; font-weight: bold;&quot; class=&quot;TextRun SCXW16801394 BCX0&quot; lang=&quot;PT-BR&quot; data-contrast=&quot;none&quot;&gt;Montagem das Pizzas:&lt;/span&gt;&lt;span style=&quot;-webkit-user-drag: none; -webkit-tap-highlight-color: transparent; margin: 0px; padding: 0px; user-select: text; font-size: 12pt; line-height: 20.5042px; font-family: Calibri, Calibri_EmbeddedFont, Calibri_MSFontService, sans-serif; color: rgb(13, 13, 13);&quot; data-ccp-props=&quot;{&amp;quot;335557856&amp;quot;:16777215,&amp;quot;335559738&amp;quot;:300,&amp;quot;335559739&amp;quot;:300}&quot; class=&quot;EOP SCXW16801394 BCX0&quot;&gt;&amp;nbsp;&lt;/span&gt;&lt;/p&gt;&lt;/div&gt;&lt;div style=&quot;-webkit-user-drag: none; -webkit-tap-highlight-color: transparent; margin: 0px; padding: 0px; user-select: text; position: relative; font-family: &amp;quot;Segoe UI&amp;quot;, &amp;quot;Segoe UI Web&amp;quot;, Arial, Verdana, sans-serif; font-size: 12px; text-align: start;&quot; class=&quot;ListContainerWrapper SCXW16801394 BCX0&quot;&gt;&lt;ul style=&quot;-webkit-user-drag: none; -webkit-tap-highlight-color: transparent; margin: 0px; padding: 0px; user-select: text; cursor: text; font-family: verdana; overflow: visible;&quot; role=&quot;list&quot; class=&quot;BulletListStyle1 SCXW16801394 BCX0&quot;&gt;&lt;li style=&quot;-webkit-user-drag: none; -webkit-tap-highlight-color: transparent; margin: 0px 0px 0px 24px; padding: 0px; user-select: text; clear: both; cursor: text; overflow: visible; position: relative; direction: ltr; display: block; font-size: 12pt; font-family: Calibri, Calibri_MSFontService, sans-serif; vertical-align: baseline;&quot; class=&quot;OutlineElement Ltr SCXW16801394 BCX0&quot; role=&quot;listitem&quot; data-aria-level=&quot;1&quot; data-aria-posinset=&quot;10&quot; aria-setsize=&quot;-1&quot; data-list-defn-props=&quot;{&amp;quot;335552541&amp;quot;:1,&amp;quot;335559685&amp;quot;:720,&amp;quot;335559991&amp;quot;:360,&amp;quot;469769226&amp;quot;:&amp;quot;Symbol&amp;quot;,&amp;quot;469769242&amp;quot;:[8226],&amp;quot;469777803&amp;quot;:&amp;quot;left&amp;quot;,&amp;quot;469777804&amp;quot;:&amp;quot;&amp;quot;,&amp;quot;469777815&amp;quot;:&amp;quot;hybridMultilevel&amp;quot;}&quot; data-listid=&quot;1&quot; data-font=&quot;Symbol&quot; data-leveltext=&quot;&quot;&gt;&lt;p style=&quot;-webkit-user-drag: none; -webkit-tap-highlight-color: transparent; margin: 0px; padding: 0px; user-select: text; overflow-wrap: break-word; white-space-collapse: preserve; vertical-align: baseline; font-kerning: none; color: windowtext;&quot; class=&quot;Paragraph SCXW16801394 BCX0&quot;&gt;&lt;span style=&quot;-webkit-user-drag: none; -webkit-tap-highlight-color: transparent; margin: 0px; padding: 0px; user-select: text; font-variant-ligatures: none !important; color: rgb(13, 13, 13); font-size: 12pt; line-height: 20.5042px; font-family: Calibri, Calibri_EmbeddedFont, Calibri_MSFontService, sans-serif; font-weight: bold;&quot; class=&quot;TextRun SCXW16801394 BCX0&quot; lang=&quot;PT-BR&quot; data-contrast=&quot;none&quot;&gt;Evento:&lt;/span&gt;&lt;span style=&quot;-webkit-user-drag: none; -webkit-tap-highlight-color: transparent; margin: 0px; padding: 0px; user-select: text; font-variant-ligatures: none !important; color: rgb(13, 13, 13); font-size: 12pt; line-height: 20.5042px; font-family: Calibri, Calibri_EmbeddedFont, Calibri_MSFontService, sans-serif;&quot; class=&quot;TextRun SCXW16801394 BCX0&quot; lang=&quot;PT-BR&quot; data-contrast=&quot;none&quot;&gt; Ingredientes são montados sobre a massa de pizza.&lt;/span&gt;&lt;span style=&quot;-webkit-user-drag: none; -webkit-tap-highlight-color: transparent; margin: 0px; padding: 0px; user-select: text; font-size: 12pt; line-height: 20.5042px; font-family: Calibri, Calibri_EmbeddedFont, Calibri_MSFontService, sans-serif; color: rgb(13, 13, 13);&quot; data-ccp-props=&quot;{&amp;quot;335557856&amp;quot;:16777215,&amp;quot;335559739&amp;quot;:0}&quot; class=&quot;EOP SCXW16801394 BCX0&quot;&gt;&amp;nbsp;&lt;/span&gt;&lt;/p&gt;&lt;/li&gt;&lt;li style=&quot;-webkit-user-drag: none; -webkit-tap-highlight-color: transparent; margin: 0px 0px 0px 24px; padding: 0px; user-select: text; clear: both; cursor: text; overflow: visible; position: relative; direction: ltr; display: block; font-size: 12pt; font-family: Calibri, Calibri_MSFontService, sans-serif; vertical-align: baseline;&quot; class=&quot;OutlineElement Ltr SCXW16801394 BCX0&quot; role=&quot;listitem&quot; data-aria-level=&quot;1&quot; data-aria-posinset=&quot;11&quot; aria-setsize=&quot;-1&quot; data-list-defn-props=&quot;{&amp;quot;335552541&amp;quot;:1,&amp;quot;335559685&amp;quot;:720,&amp;quot;335559991&amp;quot;:360,&amp;quot;469769226&amp;quot;:&amp;quot;Symbol&amp;quot;,&amp;quot;469769242&amp;quot;:[8226],&amp;quot;469777803&amp;quot;:&amp;quot;left&amp;quot;,&amp;quot;469777804&amp;quot;:&amp;quot;&amp;quot;,&amp;quot;469777815&amp;quot;:&amp;quot;hybridMultilevel&amp;quot;}&quot; data-listid=&quot;1&quot; data-font=&quot;Symbol&quot; data-leveltext=&quot;&quot;&gt;&lt;p style=&quot;-webkit-user-drag: none; -webkit-tap-highlight-color: transparent; margin: 0px; padding: 0px; user-select: text; overflow-wrap: break-word; white-space-collapse: preserve; vertical-align: baseline; font-kerning: none; color: windowtext;&quot; class=&quot;Paragraph SCXW16801394 BCX0&quot;&gt;&lt;span style=&quot;-webkit-user-drag: none; -webkit-tap-highlight-color: transparent; margin: 0px; padding: 0px; user-select: text; font-variant-ligatures: none !important; color: rgb(13, 13, 13); font-size: 12pt; line-height: 20.5042px; font-family: Calibri, Calibri_EmbeddedFont, Calibri_MSFontService, sans-serif; font-weight: bold;&quot; class=&quot;TextRun SCXW16801394 BCX0&quot; lang=&quot;PT-BR&quot; data-contrast=&quot;none&quot;&gt;Objetivo:&lt;/span&gt;&lt;span style=&quot;-webkit-user-drag: none; -webkit-tap-highlight-color: transparent; margin: 0px; padding: 0px; user-select: text; font-variant-ligatures: none !important; color: rgb(13, 13, 13); font-size: 12pt; line-height: 20.5042px; font-family: Calibri, Calibri_EmbeddedFont, Calibri_MSFontService, sans-serif;&quot; class=&quot;TextRun SCXW16801394 BCX0&quot; lang=&quot;PT-BR&quot; data-contrast=&quot;none&quot;&gt; Montar as pizzas de acordo com o pedido do cliente, garantindo uma distribuição equilibrada dos ingredientes.&lt;/span&gt;&lt;span style=&quot;-webkit-user-drag: none; -webkit-tap-highlight-color: transparent; margin: 0px; padding: 0px; user-select: text; font-size: 12pt; line-height: 20.5042px; font-family: Calibri, Calibri_EmbeddedFont, Calibri_MSFontService, sans-serif; color: rgb(13, 13, 13);&quot; data-ccp-props=&quot;{&amp;quot;335557856&amp;quot;:16777215,&amp;quot;335559739&amp;quot;:0}&quot; class=&quot;EOP SCXW16801394 BCX0&quot;&gt;&amp;nbsp;&lt;/span&gt;&lt;/p&gt;&lt;/li&gt;&lt;li style=&quot;-webkit-user-drag: none; -webkit-tap-highlight-color: transparent; margin: 0px 0px 0px 24px; padding: 0px; user-select: text; clear: both; cursor: text; overflow: visible; position: relative; direction: ltr; display: block; font-size: 12pt; font-family: Calibri, Calibri_MSFontService, sans-serif; vertical-align: baseline;&quot; class=&quot;OutlineElement Ltr SCXW16801394 BCX0&quot; role=&quot;listitem&quot; data-aria-level=&quot;1&quot; data-aria-posinset=&quot;12&quot; aria-setsize=&quot;-1&quot; data-list-defn-props=&quot;{&amp;quot;335552541&amp;quot;:1,&amp;quot;335559685&amp;quot;:720,&amp;quot;335559991&amp;quot;:360,&amp;quot;469769226&amp;quot;:&amp;quot;Symbol&amp;quot;,&amp;quot;469769242&amp;quot;:[8226],&amp;quot;469777803&amp;quot;:&amp;quot;left&amp;quot;,&amp;quot;469777804&amp;quot;:&amp;quot;&amp;quot;,&amp;quot;469777815&amp;quot;:&amp;quot;hybridMultilevel&amp;quot;}&quot; data-listid=&quot;1&quot; data-font=&quot;Symbol&quot; data-leveltext=&quot;&quot;&gt;&lt;p style=&quot;-webkit-user-drag: none; -webkit-tap-highlight-color: transparent; margin: 0px; padding: 0px; user-select: text; overflow-wrap: break-word; white-space-collapse: preserve; vertical-align: baseline; font-kerning: none; color: windowtext;&quot; class=&quot;Paragraph SCXW16801394 BCX0&quot;&gt;&lt;span style=&quot;-webkit-user-drag: none; -webkit-tap-highlight-color: transparent; margin: 0px; padding: 0px; user-select: text; font-variant-ligatures: none !important; color: rgb(13, 13, 13); font-size: 12pt; line-height: 20.5042px; font-family: Calibri, Calibri_EmbeddedFont, Calibri_MSFontService, sans-serif; font-weight: bold;&quot; class=&quot;TextRun SCXW16801394 BCX0&quot; lang=&quot;PT-BR&quot; data-contrast=&quot;none&quot;&gt;Trabalhadores Envolvidos:&lt;/span&gt;&lt;span style=&quot;-webkit-user-drag: none; -webkit-tap-highlight-color: transparent; margin: 0px; padding: 0px; user-select: text; font-variant-ligatures: none !important; color: rgb(13, 13, 13); font-size: 12pt; line-height: 20.5042px; font-family: Calibri, Calibri_EmbeddedFont, Calibri_MSFontService, sans-serif;&quot; class=&quot;TextRun SCXW16801394 BCX0&quot; lang=&quot;PT-BR&quot; data-contrast=&quot;none&quot;&gt; Pizzaiolos.&lt;/span&gt;&lt;span style=&quot;-webkit-user-drag: none; -webkit-tap-highlight-color: transparent; margin: 0px; padding: 0px; user-select: text; font-size: 12pt; line-height: 20.5042px; font-family: Calibri, Calibri_EmbeddedFont, Calibri_MSFontService, sans-serif; color: rgb(13, 13, 13);&quot; data-ccp-props=&quot;{&amp;quot;335557856&amp;quot;:16777215,&amp;quot;335559739&amp;quot;:0}&quot; class=&quot;EOP SCXW16801394 BCX0&quot;&gt;&amp;nbsp;&lt;/span&gt;&lt;/p&gt;&lt;/li&gt;&lt;/ul&gt;&lt;/div&gt;" style="text;html=1;align=center;verticalAlign=middle;whiteSpace=wrap;rounded=0;fontSize=16;" vertex="1" parent="1">
          <mxGeometry x="292" y="1289" width="335" height="112" as="geometry" />
        </mxCell>
        <mxCell id="Y9XDCs3cdz9xWgN9fsB4-62" style="edgeStyle=none;curved=1;rounded=0;orthogonalLoop=1;jettySize=auto;html=1;exitX=0;exitY=0.5;exitDx=0;exitDy=0;entryX=1;entryY=0.5;entryDx=0;entryDy=0;fontSize=12;startSize=8;endSize=8;" edge="1" parent="1" source="Y9XDCs3cdz9xWgN9fsB4-56" target="Y9XDCs3cdz9xWgN9fsB4-61">
          <mxGeometry relative="1" as="geometry" />
        </mxCell>
        <mxCell id="Y9XDCs3cdz9xWgN9fsB4-64" style="edgeStyle=none;curved=1;rounded=0;orthogonalLoop=1;jettySize=auto;html=1;exitX=0;exitY=1;exitDx=0;exitDy=0;entryX=1;entryY=0.5;entryDx=0;entryDy=0;fontSize=12;startSize=8;endSize=8;" edge="1" parent="1" source="Y9XDCs3cdz9xWgN9fsB4-56" target="Y9XDCs3cdz9xWgN9fsB4-63">
          <mxGeometry relative="1" as="geometry" />
        </mxCell>
        <mxCell id="Y9XDCs3cdz9xWgN9fsB4-66" style="edgeStyle=none;curved=1;rounded=0;orthogonalLoop=1;jettySize=auto;html=1;exitX=1;exitY=0.5;exitDx=0;exitDy=0;fontSize=12;startSize=8;endSize=8;entryX=0;entryY=0.25;entryDx=0;entryDy=0;" edge="1" parent="1" source="Y9XDCs3cdz9xWgN9fsB4-56" target="Y9XDCs3cdz9xWgN9fsB4-65">
          <mxGeometry relative="1" as="geometry">
            <mxPoint x="290" y="1698" as="targetPoint" />
          </mxGeometry>
        </mxCell>
        <mxCell id="Y9XDCs3cdz9xWgN9fsB4-56" value="Cozimento&lt;div&gt;das&lt;/div&gt;&lt;div&gt;Pizzas&lt;/div&gt;" style="ellipse;whiteSpace=wrap;html=1;aspect=fixed;" vertex="1" parent="1">
          <mxGeometry x="190" y="1667" width="64" height="64" as="geometry" />
        </mxCell>
        <mxCell id="Y9XDCs3cdz9xWgN9fsB4-58" style="edgeStyle=none;curved=1;rounded=0;orthogonalLoop=1;jettySize=auto;html=1;entryX=0.5;entryY=0;entryDx=0;entryDy=0;fontSize=12;startSize=8;endSize=8;" edge="1" parent="1" source="Y9XDCs3cdz9xWgN9fsB4-57" target="Y9XDCs3cdz9xWgN9fsB4-56">
          <mxGeometry relative="1" as="geometry" />
        </mxCell>
        <mxCell id="Y9XDCs3cdz9xWgN9fsB4-60" value="Cozinha" style="edgeLabel;html=1;align=center;verticalAlign=middle;resizable=0;points=[];fontSize=12;" vertex="1" connectable="0" parent="Y9XDCs3cdz9xWgN9fsB4-58">
          <mxGeometry x="-0.0113" y="-3" relative="1" as="geometry">
            <mxPoint as="offset" />
          </mxGeometry>
        </mxCell>
        <mxCell id="Y9XDCs3cdz9xWgN9fsB4-57" value="Pizzaiolos" style="rounded=0;whiteSpace=wrap;html=1;" vertex="1" parent="1">
          <mxGeometry x="182.75" y="1550" width="78.5" height="41" as="geometry" />
        </mxCell>
        <mxCell id="Y9XDCs3cdz9xWgN9fsB4-61" value="&lt;font style=&quot;vertical-align: inherit;&quot;&gt;&lt;font style=&quot;vertical-align: inherit;&quot;&gt;&lt;font style=&quot;vertical-align: inherit;&quot;&gt;&lt;font style=&quot;vertical-align: inherit;&quot;&gt;Pizza&lt;/font&gt;&lt;/font&gt;&lt;/font&gt;&lt;/font&gt;" style="rounded=0;whiteSpace=wrap;html=1;" vertex="1" parent="1">
          <mxGeometry x="61" y="1645" width="71" height="30" as="geometry" />
        </mxCell>
        <mxCell id="Y9XDCs3cdz9xWgN9fsB4-63" value="&lt;font style=&quot;vertical-align: inherit;&quot;&gt;&lt;font style=&quot;vertical-align: inherit;&quot;&gt;Pedido&lt;/font&gt;&lt;/font&gt;" style="rounded=0;whiteSpace=wrap;html=1;" vertex="1" parent="1">
          <mxGeometry x="61" y="1736" width="71" height="30" as="geometry" />
        </mxCell>
        <mxCell id="Y9XDCs3cdz9xWgN9fsB4-65" value="&lt;div style=&quot;-webkit-user-drag: none; -webkit-tap-highlight-color: transparent; margin: 0px; padding: 0px; user-select: text; clear: both; cursor: text; overflow: visible; position: relative; direction: ltr; font-family: &amp;quot;Segoe UI&amp;quot;, &amp;quot;Segoe UI Web&amp;quot;, Arial, Verdana, sans-serif; font-size: 12px; text-align: start;&quot; class=&quot;OutlineElement Ltr SCXW193213103 BCX0&quot;&gt;&lt;p style=&quot;-webkit-user-drag: none; -webkit-tap-highlight-color: transparent; margin: 20px 0px; padding: 0px; user-select: text; overflow-wrap: break-word; white-space-collapse: preserve; vertical-align: baseline; font-kerning: none; color: windowtext;&quot; class=&quot;Paragraph SCXW193213103 BCX0&quot;&gt;&lt;span style=&quot;-webkit-user-drag: none; -webkit-tap-highlight-color: transparent; margin: 0px; padding: 0px; user-select: text; font-variant-ligatures: none !important; color: rgb(13, 13, 13); font-size: 12pt; line-height: 20.5042px; font-family: Calibri, Calibri_EmbeddedFont, Calibri_MSFontService, sans-serif; font-weight: bold;&quot; class=&quot;TextRun SCXW193213103 BCX0&quot; lang=&quot;PT-BR&quot; data-contrast=&quot;none&quot;&gt;Cozimento das Pizzas:&lt;/span&gt;&lt;span style=&quot;-webkit-user-drag: none; -webkit-tap-highlight-color: transparent; margin: 0px; padding: 0px; user-select: text; font-size: 12pt; line-height: 20.5042px; font-family: Calibri, Calibri_EmbeddedFont, Calibri_MSFontService, sans-serif; color: rgb(13, 13, 13);&quot; data-ccp-props=&quot;{&amp;quot;335557856&amp;quot;:16777215,&amp;quot;335559738&amp;quot;:300,&amp;quot;335559739&amp;quot;:300}&quot; class=&quot;EOP SCXW193213103 BCX0&quot;&gt;&amp;nbsp;&lt;/span&gt;&lt;/p&gt;&lt;/div&gt;&lt;div style=&quot;-webkit-user-drag: none; -webkit-tap-highlight-color: transparent; margin: 0px; padding: 0px; user-select: text; position: relative; font-family: &amp;quot;Segoe UI&amp;quot;, &amp;quot;Segoe UI Web&amp;quot;, Arial, Verdana, sans-serif; font-size: 12px; text-align: start;&quot; class=&quot;ListContainerWrapper SCXW193213103 BCX0&quot;&gt;&lt;ul style=&quot;-webkit-user-drag: none; -webkit-tap-highlight-color: transparent; margin: 0px; padding: 0px; user-select: text; cursor: text; font-family: verdana; overflow: visible;&quot; role=&quot;list&quot; class=&quot;BulletListStyle1 SCXW193213103 BCX0&quot;&gt;&lt;li style=&quot;-webkit-user-drag: none; -webkit-tap-highlight-color: transparent; margin: 0px 0px 0px 24px; padding: 0px; user-select: text; clear: both; cursor: text; overflow: visible; position: relative; direction: ltr; display: block; font-size: 12pt; font-family: Calibri, Calibri_MSFontService, sans-serif; vertical-align: baseline;&quot; class=&quot;OutlineElement Ltr SCXW193213103 BCX0&quot; role=&quot;listitem&quot; data-aria-level=&quot;1&quot; data-aria-posinset=&quot;13&quot; aria-setsize=&quot;-1&quot; data-list-defn-props=&quot;{&amp;quot;335552541&amp;quot;:1,&amp;quot;335559685&amp;quot;:720,&amp;quot;335559991&amp;quot;:360,&amp;quot;469769226&amp;quot;:&amp;quot;Symbol&amp;quot;,&amp;quot;469769242&amp;quot;:[8226],&amp;quot;469777803&amp;quot;:&amp;quot;left&amp;quot;,&amp;quot;469777804&amp;quot;:&amp;quot;&amp;quot;,&amp;quot;469777815&amp;quot;:&amp;quot;hybridMultilevel&amp;quot;}&quot; data-listid=&quot;1&quot; data-font=&quot;Symbol&quot; data-leveltext=&quot;&quot;&gt;&lt;p style=&quot;-webkit-user-drag: none; -webkit-tap-highlight-color: transparent; margin: 0px; padding: 0px; user-select: text; overflow-wrap: break-word; white-space-collapse: preserve; vertical-align: baseline; font-kerning: none; color: windowtext;&quot; class=&quot;Paragraph SCXW193213103 BCX0&quot;&gt;&lt;span style=&quot;-webkit-user-drag: none; -webkit-tap-highlight-color: transparent; margin: 0px; padding: 0px; user-select: text; font-variant-ligatures: none !important; color: rgb(13, 13, 13); font-size: 12pt; line-height: 20.5042px; font-family: Calibri, Calibri_EmbeddedFont, Calibri_MSFontService, sans-serif; font-weight: bold;&quot; class=&quot;TextRun SCXW193213103 BCX0&quot; lang=&quot;PT-BR&quot; data-contrast=&quot;none&quot;&gt;Evento:&lt;/span&gt;&lt;span style=&quot;-webkit-user-drag: none; -webkit-tap-highlight-color: transparent; margin: 0px; padding: 0px; user-select: text; font-variant-ligatures: none !important; color: rgb(13, 13, 13); font-size: 12pt; line-height: 20.5042px; font-family: Calibri, Calibri_EmbeddedFont, Calibri_MSFontService, sans-serif;&quot; class=&quot;TextRun SCXW193213103 BCX0&quot; lang=&quot;PT-BR&quot; data-contrast=&quot;none&quot;&gt; Pizzas são colocadas no forno.&lt;/span&gt;&lt;span style=&quot;-webkit-user-drag: none; -webkit-tap-highlight-color: transparent; margin: 0px; padding: 0px; user-select: text; font-size: 12pt; line-height: 20.5042px; font-family: Calibri, Calibri_EmbeddedFont, Calibri_MSFontService, sans-serif; color: rgb(13, 13, 13);&quot; data-ccp-props=&quot;{&amp;quot;335557856&amp;quot;:16777215,&amp;quot;335559739&amp;quot;:0}&quot; class=&quot;EOP SCXW193213103 BCX0&quot;&gt;&amp;nbsp;&lt;/span&gt;&lt;/p&gt;&lt;/li&gt;&lt;li style=&quot;-webkit-user-drag: none; -webkit-tap-highlight-color: transparent; margin: 0px 0px 0px 24px; padding: 0px; user-select: text; clear: both; cursor: text; overflow: visible; position: relative; direction: ltr; display: block; font-size: 12pt; font-family: Calibri, Calibri_MSFontService, sans-serif; vertical-align: baseline;&quot; class=&quot;OutlineElement Ltr SCXW193213103 BCX0&quot; role=&quot;listitem&quot; data-aria-level=&quot;1&quot; data-aria-posinset=&quot;14&quot; aria-setsize=&quot;-1&quot; data-list-defn-props=&quot;{&amp;quot;335552541&amp;quot;:1,&amp;quot;335559685&amp;quot;:720,&amp;quot;335559991&amp;quot;:360,&amp;quot;469769226&amp;quot;:&amp;quot;Symbol&amp;quot;,&amp;quot;469769242&amp;quot;:[8226],&amp;quot;469777803&amp;quot;:&amp;quot;left&amp;quot;,&amp;quot;469777804&amp;quot;:&amp;quot;&amp;quot;,&amp;quot;469777815&amp;quot;:&amp;quot;hybridMultilevel&amp;quot;}&quot; data-listid=&quot;1&quot; data-font=&quot;Symbol&quot; data-leveltext=&quot;&quot;&gt;&lt;p style=&quot;-webkit-user-drag: none; -webkit-tap-highlight-color: transparent; margin: 0px; padding: 0px; user-select: text; overflow-wrap: break-word; white-space-collapse: preserve; vertical-align: baseline; font-kerning: none; color: windowtext;&quot; class=&quot;Paragraph SCXW193213103 BCX0&quot;&gt;&lt;span style=&quot;-webkit-user-drag: none; -webkit-tap-highlight-color: transparent; margin: 0px; padding: 0px; user-select: text; font-variant-ligatures: none !important; color: rgb(13, 13, 13); font-size: 12pt; line-height: 20.5042px; font-family: Calibri, Calibri_EmbeddedFont, Calibri_MSFontService, sans-serif; font-weight: bold;&quot; class=&quot;TextRun SCXW193213103 BCX0&quot; lang=&quot;PT-BR&quot; data-contrast=&quot;none&quot;&gt;Objetivo:&lt;/span&gt;&lt;span style=&quot;-webkit-user-drag: none; -webkit-tap-highlight-color: transparent; margin: 0px; padding: 0px; user-select: text; font-variant-ligatures: none !important; color: rgb(13, 13, 13); font-size: 12pt; line-height: 20.5042px; font-family: Calibri, Calibri_EmbeddedFont, Calibri_MSFontService, sans-serif;&quot; class=&quot;TextRun SCXW193213103 BCX0&quot; lang=&quot;PT-BR&quot; data-contrast=&quot;none&quot;&gt; Assar as pizzas em temperaturas precisas para garantir uma massa crocante e ingredientes perfeitamente cozidos.&lt;/span&gt;&lt;span style=&quot;-webkit-user-drag: none; -webkit-tap-highlight-color: transparent; margin: 0px; padding: 0px; user-select: text; font-size: 12pt; line-height: 20.5042px; font-family: Calibri, Calibri_EmbeddedFont, Calibri_MSFontService, sans-serif; color: rgb(13, 13, 13);&quot; data-ccp-props=&quot;{&amp;quot;335557856&amp;quot;:16777215,&amp;quot;335559739&amp;quot;:0}&quot; class=&quot;EOP SCXW193213103 BCX0&quot;&gt;&amp;nbsp;&lt;/span&gt;&lt;/p&gt;&lt;/li&gt;&lt;li style=&quot;-webkit-user-drag: none; -webkit-tap-highlight-color: transparent; margin: 0px 0px 0px 24px; padding: 0px; user-select: text; clear: both; cursor: text; overflow: visible; position: relative; direction: ltr; display: block; font-size: 12pt; font-family: Calibri, Calibri_MSFontService, sans-serif; vertical-align: baseline;&quot; class=&quot;OutlineElement Ltr SCXW193213103 BCX0&quot; role=&quot;listitem&quot; data-aria-level=&quot;1&quot; data-aria-posinset=&quot;15&quot; aria-setsize=&quot;-1&quot; data-list-defn-props=&quot;{&amp;quot;335552541&amp;quot;:1,&amp;quot;335559685&amp;quot;:720,&amp;quot;335559991&amp;quot;:360,&amp;quot;469769226&amp;quot;:&amp;quot;Symbol&amp;quot;,&amp;quot;469769242&amp;quot;:[8226],&amp;quot;469777803&amp;quot;:&amp;quot;left&amp;quot;,&amp;quot;469777804&amp;quot;:&amp;quot;&amp;quot;,&amp;quot;469777815&amp;quot;:&amp;quot;hybridMultilevel&amp;quot;}&quot; data-listid=&quot;1&quot; data-font=&quot;Symbol&quot; data-leveltext=&quot;&quot;&gt;&lt;p style=&quot;-webkit-user-drag: none; -webkit-tap-highlight-color: transparent; margin: 0px; padding: 0px; user-select: text; overflow-wrap: break-word; white-space-collapse: preserve; vertical-align: baseline; font-kerning: none; color: windowtext;&quot; class=&quot;Paragraph SCXW193213103 BCX0&quot;&gt;&lt;span style=&quot;-webkit-user-drag: none; -webkit-tap-highlight-color: transparent; margin: 0px; padding: 0px; user-select: text; font-variant-ligatures: none !important; color: rgb(13, 13, 13); font-size: 12pt; line-height: 20.5042px; font-family: Calibri, Calibri_EmbeddedFont, Calibri_MSFontService, sans-serif; font-weight: bold;&quot; class=&quot;TextRun SCXW193213103 BCX0&quot; lang=&quot;PT-BR&quot; data-contrast=&quot;none&quot;&gt;Trabalhadores Envolvidos:&lt;/span&gt;&lt;span style=&quot;-webkit-user-drag: none; -webkit-tap-highlight-color: transparent; margin: 0px; padding: 0px; user-select: text; font-variant-ligatures: none !important; color: rgb(13, 13, 13); font-size: 12pt; line-height: 20.5042px; font-family: Calibri, Calibri_EmbeddedFont, Calibri_MSFontService, sans-serif;&quot; class=&quot;TextRun SCXW193213103 BCX0&quot; lang=&quot;PT-BR&quot; data-contrast=&quot;none&quot;&gt; Pizzaiolos.&lt;/span&gt;&lt;span style=&quot;-webkit-user-drag: none; -webkit-tap-highlight-color: transparent; margin: 0px; padding: 0px; user-select: text; font-size: 12pt; line-height: 20.5042px; font-family: Calibri, Calibri_EmbeddedFont, Calibri_MSFontService, sans-serif; color: rgb(13, 13, 13);&quot; data-ccp-props=&quot;{&amp;quot;335557856&amp;quot;:16777215,&amp;quot;335559739&amp;quot;:0}&quot; class=&quot;EOP SCXW193213103 BCX0&quot;&gt;&amp;nbsp;&lt;/span&gt;&lt;/p&gt;&lt;/li&gt;&lt;/ul&gt;&lt;/div&gt;" style="text;html=1;align=center;verticalAlign=middle;whiteSpace=wrap;rounded=0;fontSize=16;" vertex="1" parent="1">
          <mxGeometry x="292" y="1671" width="323" height="108" as="geometry" />
        </mxCell>
        <mxCell id="Y9XDCs3cdz9xWgN9fsB4-72" style="edgeStyle=none;curved=1;rounded=0;orthogonalLoop=1;jettySize=auto;html=1;exitX=0;exitY=0.5;exitDx=0;exitDy=0;entryX=1;entryY=0.5;entryDx=0;entryDy=0;fontSize=12;startSize=8;endSize=8;" edge="1" parent="1" source="Y9XDCs3cdz9xWgN9fsB4-67" target="Y9XDCs3cdz9xWgN9fsB4-71">
          <mxGeometry relative="1" as="geometry" />
        </mxCell>
        <mxCell id="Y9XDCs3cdz9xWgN9fsB4-74" style="edgeStyle=none;curved=1;rounded=0;orthogonalLoop=1;jettySize=auto;html=1;exitX=0;exitY=1;exitDx=0;exitDy=0;entryX=1;entryY=0.5;entryDx=0;entryDy=0;fontSize=12;startSize=8;endSize=8;" edge="1" parent="1" source="Y9XDCs3cdz9xWgN9fsB4-67" target="Y9XDCs3cdz9xWgN9fsB4-73">
          <mxGeometry relative="1" as="geometry" />
        </mxCell>
        <mxCell id="Y9XDCs3cdz9xWgN9fsB4-76" style="edgeStyle=none;curved=1;rounded=0;orthogonalLoop=1;jettySize=auto;html=1;exitX=1;exitY=0.5;exitDx=0;exitDy=0;entryX=0;entryY=0.25;entryDx=0;entryDy=0;fontSize=12;startSize=8;endSize=8;" edge="1" parent="1" source="Y9XDCs3cdz9xWgN9fsB4-67" target="Y9XDCs3cdz9xWgN9fsB4-75">
          <mxGeometry relative="1" as="geometry" />
        </mxCell>
        <mxCell id="Y9XDCs3cdz9xWgN9fsB4-67" value="Embalar&lt;div&gt;Pizzas&lt;/div&gt;" style="ellipse;whiteSpace=wrap;html=1;aspect=fixed;" vertex="1" parent="1">
          <mxGeometry x="190" y="2064" width="64" height="64" as="geometry" />
        </mxCell>
        <mxCell id="Y9XDCs3cdz9xWgN9fsB4-69" style="edgeStyle=none;curved=1;rounded=0;orthogonalLoop=1;jettySize=auto;html=1;exitX=0.5;exitY=1;exitDx=0;exitDy=0;entryX=0.5;entryY=0;entryDx=0;entryDy=0;fontSize=12;startSize=8;endSize=8;" edge="1" parent="1" source="Y9XDCs3cdz9xWgN9fsB4-68" target="Y9XDCs3cdz9xWgN9fsB4-67">
          <mxGeometry relative="1" as="geometry" />
        </mxCell>
        <mxCell id="Y9XDCs3cdz9xWgN9fsB4-70" value="Embala" style="edgeLabel;html=1;align=center;verticalAlign=middle;resizable=0;points=[];fontSize=12;" vertex="1" connectable="0" parent="Y9XDCs3cdz9xWgN9fsB4-69">
          <mxGeometry x="-0.0269" y="4" relative="1" as="geometry">
            <mxPoint y="-1" as="offset" />
          </mxGeometry>
        </mxCell>
        <mxCell id="Y9XDCs3cdz9xWgN9fsB4-68" value="Equipe&lt;div&gt;Cozinha&lt;/div&gt;" style="rounded=0;whiteSpace=wrap;html=1;" vertex="1" parent="1">
          <mxGeometry x="182.75" y="1954" width="78.5" height="41" as="geometry" />
        </mxCell>
        <mxCell id="Y9XDCs3cdz9xWgN9fsB4-71" value="&lt;font style=&quot;vertical-align: inherit;&quot;&gt;&lt;font style=&quot;vertical-align: inherit;&quot;&gt;Pedido&lt;/font&gt;&lt;/font&gt;" style="rounded=0;whiteSpace=wrap;html=1;" vertex="1" parent="1">
          <mxGeometry x="63" y="2069" width="71" height="30" as="geometry" />
        </mxCell>
        <mxCell id="Y9XDCs3cdz9xWgN9fsB4-73" value="&lt;font style=&quot;vertical-align: inherit;&quot;&gt;&lt;font style=&quot;vertical-align: inherit;&quot;&gt;&lt;font style=&quot;vertical-align: inherit;&quot;&gt;&lt;font style=&quot;vertical-align: inherit;&quot;&gt;Pizza&lt;/font&gt;&lt;/font&gt;&lt;/font&gt;&lt;/font&gt;" style="rounded=0;whiteSpace=wrap;html=1;" vertex="1" parent="1">
          <mxGeometry x="63" y="2152" width="71" height="30" as="geometry" />
        </mxCell>
        <mxCell id="Y9XDCs3cdz9xWgN9fsB4-75" value="&lt;div style=&quot;-webkit-user-drag: none; -webkit-tap-highlight-color: transparent; margin: 0px; padding: 0px; user-select: text; clear: both; cursor: text; overflow: visible; position: relative; direction: ltr; font-family: &amp;quot;Segoe UI&amp;quot;, &amp;quot;Segoe UI Web&amp;quot;, Arial, Verdana, sans-serif; font-size: 12px; text-align: start;&quot; class=&quot;OutlineElement Ltr SCXW87926532 BCX0&quot;&gt;&lt;p style=&quot;-webkit-user-drag: none; -webkit-tap-highlight-color: transparent; margin: 20px 0px; padding: 0px; user-select: text; overflow-wrap: break-word; white-space-collapse: preserve; vertical-align: baseline; font-kerning: none; color: windowtext;&quot; class=&quot;Paragraph SCXW87926532 BCX0&quot;&gt;&lt;span style=&quot;-webkit-user-drag: none; -webkit-tap-highlight-color: transparent; margin: 0px; padding: 0px; user-select: text; font-variant-ligatures: none !important; color: rgb(13, 13, 13); font-size: 12pt; line-height: 20.5042px; font-family: Calibri, Calibri_EmbeddedFont, Calibri_MSFontService, sans-serif; font-weight: bold;&quot; class=&quot;TextRun SCXW87926532 BCX0&quot; lang=&quot;PT-BR&quot; data-contrast=&quot;none&quot;&gt;Embalar as Pizzas:&lt;/span&gt;&lt;span style=&quot;-webkit-user-drag: none; -webkit-tap-highlight-color: transparent; margin: 0px; padding: 0px; user-select: text; font-size: 12pt; line-height: 20.5042px; font-family: Calibri, Calibri_EmbeddedFont, Calibri_MSFontService, sans-serif; color: rgb(13, 13, 13);&quot; data-ccp-props=&quot;{&amp;quot;335557856&amp;quot;:16777215,&amp;quot;335559738&amp;quot;:300,&amp;quot;335559739&amp;quot;:300}&quot; class=&quot;EOP SCXW87926532 BCX0&quot;&gt;&amp;nbsp;&lt;/span&gt;&lt;/p&gt;&lt;/div&gt;&lt;div style=&quot;-webkit-user-drag: none; -webkit-tap-highlight-color: transparent; margin: 0px; padding: 0px; user-select: text; position: relative; font-family: &amp;quot;Segoe UI&amp;quot;, &amp;quot;Segoe UI Web&amp;quot;, Arial, Verdana, sans-serif; font-size: 12px; text-align: start;&quot; class=&quot;ListContainerWrapper SCXW87926532 BCX0&quot;&gt;&lt;ul style=&quot;-webkit-user-drag: none; -webkit-tap-highlight-color: transparent; margin: 0px; padding: 0px; user-select: text; cursor: text; font-family: verdana; overflow: visible;&quot; role=&quot;list&quot; class=&quot;BulletListStyle1 SCXW87926532 BCX0&quot;&gt;&lt;li style=&quot;-webkit-user-drag: none; -webkit-tap-highlight-color: transparent; margin: 0px 0px 0px 24px; padding: 0px; user-select: text; clear: both; cursor: text; overflow: visible; position: relative; direction: ltr; display: block; font-size: 12pt; font-family: Calibri, Calibri_MSFontService, sans-serif; vertical-align: baseline;&quot; class=&quot;OutlineElement Ltr SCXW87926532 BCX0&quot; role=&quot;listitem&quot; data-aria-level=&quot;1&quot; data-aria-posinset=&quot;16&quot; aria-setsize=&quot;-1&quot; data-list-defn-props=&quot;{&amp;quot;335552541&amp;quot;:1,&amp;quot;335559685&amp;quot;:720,&amp;quot;335559991&amp;quot;:360,&amp;quot;469769226&amp;quot;:&amp;quot;Symbol&amp;quot;,&amp;quot;469769242&amp;quot;:[8226],&amp;quot;469777803&amp;quot;:&amp;quot;left&amp;quot;,&amp;quot;469777804&amp;quot;:&amp;quot;&amp;quot;,&amp;quot;469777815&amp;quot;:&amp;quot;hybridMultilevel&amp;quot;}&quot; data-listid=&quot;1&quot; data-font=&quot;Symbol&quot; data-leveltext=&quot;&quot;&gt;&lt;p style=&quot;-webkit-user-drag: none; -webkit-tap-highlight-color: transparent; margin: 0px; padding: 0px; user-select: text; overflow-wrap: break-word; white-space-collapse: preserve; vertical-align: baseline; font-kerning: none; color: windowtext;&quot; class=&quot;Paragraph SCXW87926532 BCX0&quot;&gt;&lt;span style=&quot;-webkit-user-drag: none; -webkit-tap-highlight-color: transparent; margin: 0px; padding: 0px; user-select: text; font-variant-ligatures: none !important; color: rgb(13, 13, 13); font-size: 12pt; line-height: 20.5042px; font-family: Calibri, Calibri_EmbeddedFont, Calibri_MSFontService, sans-serif; font-weight: bold;&quot; class=&quot;TextRun SCXW87926532 BCX0&quot; lang=&quot;PT-BR&quot; data-contrast=&quot;none&quot;&gt;Evento:&lt;/span&gt;&lt;span style=&quot;-webkit-user-drag: none; -webkit-tap-highlight-color: transparent; margin: 0px; padding: 0px; user-select: text; font-variant-ligatures: none !important; color: rgb(13, 13, 13); font-size: 12pt; line-height: 20.5042px; font-family: Calibri, Calibri_EmbeddedFont, Calibri_MSFontService, sans-serif;&quot; class=&quot;TextRun SCXW87926532 BCX0&quot; lang=&quot;PT-BR&quot; data-contrast=&quot;none&quot;&gt; Pizzas são retiradas do forno e embaladas.&lt;/span&gt;&lt;span style=&quot;-webkit-user-drag: none; -webkit-tap-highlight-color: transparent; margin: 0px; padding: 0px; user-select: text; font-size: 12pt; line-height: 20.5042px; font-family: Calibri, Calibri_EmbeddedFont, Calibri_MSFontService, sans-serif; color: rgb(13, 13, 13);&quot; data-ccp-props=&quot;{&amp;quot;335557856&amp;quot;:16777215,&amp;quot;335559739&amp;quot;:0}&quot; class=&quot;EOP SCXW87926532 BCX0&quot;&gt;&amp;nbsp;&lt;/span&gt;&lt;/p&gt;&lt;/li&gt;&lt;li style=&quot;-webkit-user-drag: none; -webkit-tap-highlight-color: transparent; margin: 0px 0px 0px 24px; padding: 0px; user-select: text; clear: both; cursor: text; overflow: visible; position: relative; direction: ltr; display: block; font-size: 12pt; font-family: Calibri, Calibri_MSFontService, sans-serif; vertical-align: baseline;&quot; class=&quot;OutlineElement Ltr SCXW87926532 BCX0&quot; role=&quot;listitem&quot; data-aria-level=&quot;1&quot; data-aria-posinset=&quot;17&quot; aria-setsize=&quot;-1&quot; data-list-defn-props=&quot;{&amp;quot;335552541&amp;quot;:1,&amp;quot;335559685&amp;quot;:720,&amp;quot;335559991&amp;quot;:360,&amp;quot;469769226&amp;quot;:&amp;quot;Symbol&amp;quot;,&amp;quot;469769242&amp;quot;:[8226],&amp;quot;469777803&amp;quot;:&amp;quot;left&amp;quot;,&amp;quot;469777804&amp;quot;:&amp;quot;&amp;quot;,&amp;quot;469777815&amp;quot;:&amp;quot;hybridMultilevel&amp;quot;}&quot; data-listid=&quot;1&quot; data-font=&quot;Symbol&quot; data-leveltext=&quot;&quot;&gt;&lt;p style=&quot;-webkit-user-drag: none; -webkit-tap-highlight-color: transparent; margin: 0px; padding: 0px; user-select: text; overflow-wrap: break-word; white-space-collapse: preserve; vertical-align: baseline; font-kerning: none; color: windowtext;&quot; class=&quot;Paragraph SCXW87926532 BCX0&quot;&gt;&lt;span style=&quot;-webkit-user-drag: none; -webkit-tap-highlight-color: transparent; margin: 0px; padding: 0px; user-select: text; font-variant-ligatures: none !important; color: rgb(13, 13, 13); font-size: 12pt; line-height: 20.5042px; font-family: Calibri, Calibri_EmbeddedFont, Calibri_MSFontService, sans-serif; font-weight: bold;&quot; class=&quot;TextRun SCXW87926532 BCX0&quot; lang=&quot;PT-BR&quot; data-contrast=&quot;none&quot;&gt;Objetivo:&lt;/span&gt;&lt;span style=&quot;-webkit-user-drag: none; -webkit-tap-highlight-color: transparent; margin: 0px; padding: 0px; user-select: text; font-variant-ligatures: none !important; color: rgb(13, 13, 13); font-size: 12pt; line-height: 20.5042px; font-family: Calibri, Calibri_EmbeddedFont, Calibri_MSFontService, sans-serif;&quot; class=&quot;TextRun SCXW87926532 BCX0&quot; lang=&quot;PT-BR&quot; data-contrast=&quot;none&quot;&gt; Embalar as pizzas em caixas térmicas para garantir sua temperatura durante o transporte.&lt;/span&gt;&lt;span style=&quot;-webkit-user-drag: none; -webkit-tap-highlight-color: transparent; margin: 0px; padding: 0px; user-select: text; font-size: 12pt; line-height: 20.5042px; font-family: Calibri, Calibri_EmbeddedFont, Calibri_MSFontService, sans-serif; color: rgb(13, 13, 13);&quot; data-ccp-props=&quot;{&amp;quot;335557856&amp;quot;:16777215,&amp;quot;335559739&amp;quot;:0}&quot; class=&quot;EOP SCXW87926532 BCX0&quot;&gt;&amp;nbsp;&lt;/span&gt;&lt;/p&gt;&lt;/li&gt;&lt;li style=&quot;-webkit-user-drag: none; -webkit-tap-highlight-color: transparent; margin: 0px 0px 0px 24px; padding: 0px; user-select: text; clear: both; cursor: text; overflow: visible; position: relative; direction: ltr; display: block; font-size: 12pt; font-family: Calibri, Calibri_MSFontService, sans-serif; vertical-align: baseline;&quot; class=&quot;OutlineElement Ltr SCXW87926532 BCX0&quot; role=&quot;listitem&quot; data-aria-level=&quot;1&quot; data-aria-posinset=&quot;18&quot; aria-setsize=&quot;-1&quot; data-list-defn-props=&quot;{&amp;quot;335552541&amp;quot;:1,&amp;quot;335559685&amp;quot;:720,&amp;quot;335559991&amp;quot;:360,&amp;quot;469769226&amp;quot;:&amp;quot;Symbol&amp;quot;,&amp;quot;469769242&amp;quot;:[8226],&amp;quot;469777803&amp;quot;:&amp;quot;left&amp;quot;,&amp;quot;469777804&amp;quot;:&amp;quot;&amp;quot;,&amp;quot;469777815&amp;quot;:&amp;quot;hybridMultilevel&amp;quot;}&quot; data-listid=&quot;1&quot; data-font=&quot;Symbol&quot; data-leveltext=&quot;&quot;&gt;&lt;p style=&quot;-webkit-user-drag: none; -webkit-tap-highlight-color: transparent; margin: 0px; padding: 0px; user-select: text; overflow-wrap: break-word; white-space-collapse: preserve; vertical-align: baseline; font-kerning: none; color: windowtext;&quot; class=&quot;Paragraph SCXW87926532 BCX0&quot;&gt;&lt;span style=&quot;-webkit-user-drag: none; -webkit-tap-highlight-color: transparent; margin: 0px; padding: 0px; user-select: text; font-variant-ligatures: none !important; color: rgb(13, 13, 13); font-size: 12pt; line-height: 20.5042px; font-family: Calibri, Calibri_EmbeddedFont, Calibri_MSFontService, sans-serif; font-weight: bold;&quot; class=&quot;TextRun SCXW87926532 BCX0&quot; lang=&quot;PT-BR&quot; data-contrast=&quot;none&quot;&gt;Trabalhadores Envolvidos:&lt;/span&gt;&lt;span style=&quot;-webkit-user-drag: none; -webkit-tap-highlight-color: transparent; margin: 0px; padding: 0px; user-select: text; font-variant-ligatures: none !important; color: rgb(13, 13, 13); font-size: 12pt; line-height: 20.5042px; font-family: Calibri, Calibri_EmbeddedFont, Calibri_MSFontService, sans-serif;&quot; class=&quot;TextRun SCXW87926532 BCX0&quot; lang=&quot;PT-BR&quot; data-contrast=&quot;none&quot;&gt; Equipe de Cozinha.&lt;/span&gt;&lt;span style=&quot;-webkit-user-drag: none; -webkit-tap-highlight-color: transparent; margin: 0px; padding: 0px; user-select: text; font-size: 12pt; line-height: 20.5042px; font-family: Calibri, Calibri_EmbeddedFont, Calibri_MSFontService, sans-serif; color: rgb(13, 13, 13);&quot; data-ccp-props=&quot;{&amp;quot;335557856&amp;quot;:16777215,&amp;quot;335559739&amp;quot;:0}&quot; class=&quot;EOP SCXW87926532 BCX0&quot;&gt;&amp;nbsp;&lt;/span&gt;&lt;/p&gt;&lt;/li&gt;&lt;/ul&gt;&lt;/div&gt;" style="text;html=1;align=center;verticalAlign=middle;whiteSpace=wrap;rounded=0;fontSize=16;" vertex="1" parent="1">
          <mxGeometry x="292" y="2064" width="360" height="122" as="geometry" />
        </mxCell>
        <mxCell id="Y9XDCs3cdz9xWgN9fsB4-82" style="edgeStyle=none;curved=1;rounded=0;orthogonalLoop=1;jettySize=auto;html=1;exitX=0;exitY=0.5;exitDx=0;exitDy=0;entryX=1;entryY=0.5;entryDx=0;entryDy=0;fontSize=12;startSize=8;endSize=8;" edge="1" parent="1" source="Y9XDCs3cdz9xWgN9fsB4-77" target="Y9XDCs3cdz9xWgN9fsB4-81">
          <mxGeometry relative="1" as="geometry" />
        </mxCell>
        <mxCell id="Y9XDCs3cdz9xWgN9fsB4-84" style="edgeStyle=none;curved=1;rounded=0;orthogonalLoop=1;jettySize=auto;html=1;exitX=0;exitY=1;exitDx=0;exitDy=0;entryX=1;entryY=0.5;entryDx=0;entryDy=0;fontSize=12;startSize=8;endSize=8;" edge="1" parent="1" source="Y9XDCs3cdz9xWgN9fsB4-77" target="Y9XDCs3cdz9xWgN9fsB4-83">
          <mxGeometry relative="1" as="geometry" />
        </mxCell>
        <mxCell id="Y9XDCs3cdz9xWgN9fsB4-86" style="edgeStyle=none;curved=1;rounded=0;orthogonalLoop=1;jettySize=auto;html=1;exitX=1;exitY=0.5;exitDx=0;exitDy=0;entryX=0;entryY=0.25;entryDx=0;entryDy=0;fontSize=12;startSize=8;endSize=8;" edge="1" parent="1" source="Y9XDCs3cdz9xWgN9fsB4-77" target="Y9XDCs3cdz9xWgN9fsB4-85">
          <mxGeometry relative="1" as="geometry" />
        </mxCell>
        <mxCell id="Y9XDCs3cdz9xWgN9fsB4-77" value="Entrega&lt;div&gt;das&amp;nbsp;&lt;/div&gt;&lt;div&gt;Pizzas&lt;/div&gt;" style="ellipse;whiteSpace=wrap;html=1;aspect=fixed;" vertex="1" parent="1">
          <mxGeometry x="190" y="2475" width="64" height="64" as="geometry" />
        </mxCell>
        <mxCell id="Y9XDCs3cdz9xWgN9fsB4-79" style="edgeStyle=none;curved=1;rounded=0;orthogonalLoop=1;jettySize=auto;html=1;exitX=0.5;exitY=1;exitDx=0;exitDy=0;entryX=0.5;entryY=0;entryDx=0;entryDy=0;fontSize=12;startSize=8;endSize=8;" edge="1" parent="1" source="Y9XDCs3cdz9xWgN9fsB4-78" target="Y9XDCs3cdz9xWgN9fsB4-77">
          <mxGeometry relative="1" as="geometry" />
        </mxCell>
        <mxCell id="Y9XDCs3cdz9xWgN9fsB4-80" value="Entrega" style="edgeLabel;html=1;align=center;verticalAlign=middle;resizable=0;points=[];fontSize=12;" vertex="1" connectable="0" parent="Y9XDCs3cdz9xWgN9fsB4-79">
          <mxGeometry x="-0.0737" relative="1" as="geometry">
            <mxPoint as="offset" />
          </mxGeometry>
        </mxCell>
        <mxCell id="Y9XDCs3cdz9xWgN9fsB4-78" value="Entregadores" style="rounded=0;whiteSpace=wrap;html=1;" vertex="1" parent="1">
          <mxGeometry x="182.75" y="2355" width="78.5" height="41" as="geometry" />
        </mxCell>
        <mxCell id="Y9XDCs3cdz9xWgN9fsB4-81" value="&lt;font style=&quot;vertical-align: inherit;&quot;&gt;&lt;font style=&quot;vertical-align: inherit;&quot;&gt;Pedido&lt;/font&gt;&lt;/font&gt;" style="rounded=0;whiteSpace=wrap;html=1;" vertex="1" parent="1">
          <mxGeometry x="63" y="2448" width="71" height="30" as="geometry" />
        </mxCell>
        <mxCell id="Y9XDCs3cdz9xWgN9fsB4-83" value="&lt;font style=&quot;vertical-align: inherit;&quot;&gt;&lt;font style=&quot;vertical-align: inherit;&quot;&gt;&lt;font style=&quot;vertical-align: inherit;&quot;&gt;&lt;font style=&quot;vertical-align: inherit;&quot;&gt;Pizza&lt;/font&gt;&lt;/font&gt;&lt;/font&gt;&lt;/font&gt;" style="rounded=0;whiteSpace=wrap;html=1;" vertex="1" parent="1">
          <mxGeometry x="63" y="2526" width="71" height="30" as="geometry" />
        </mxCell>
        <mxCell id="Y9XDCs3cdz9xWgN9fsB4-85" value="&lt;div style=&quot;-webkit-user-drag: none; -webkit-tap-highlight-color: transparent; margin: 0px; padding: 0px; user-select: text; clear: both; cursor: text; overflow: visible; position: relative; direction: ltr; font-family: &amp;quot;Segoe UI&amp;quot;, &amp;quot;Segoe UI Web&amp;quot;, Arial, Verdana, sans-serif; font-size: 12px; text-align: start;&quot; class=&quot;OutlineElement Ltr SCXW242477588 BCX0&quot;&gt;&lt;p style=&quot;-webkit-user-drag: none; -webkit-tap-highlight-color: transparent; margin: 20px 0px; padding: 0px; user-select: text; overflow-wrap: break-word; white-space-collapse: preserve; vertical-align: baseline; font-kerning: none; color: windowtext;&quot; class=&quot;Paragraph SCXW242477588 BCX0&quot;&gt;&lt;span style=&quot;-webkit-user-drag: none; -webkit-tap-highlight-color: transparent; margin: 0px; padding: 0px; user-select: text; font-variant-ligatures: none !important; color: rgb(13, 13, 13); font-size: 12pt; line-height: 20.5042px; font-family: Calibri, Calibri_EmbeddedFont, Calibri_MSFontService, sans-serif; font-weight: bold;&quot; class=&quot;TextRun SCXW242477588 BCX0&quot; lang=&quot;PT-BR&quot; data-contrast=&quot;none&quot;&gt;Entrega das Pizzas:&lt;/span&gt;&lt;span style=&quot;-webkit-user-drag: none; -webkit-tap-highlight-color: transparent; margin: 0px; padding: 0px; user-select: text; font-size: 12pt; line-height: 20.5042px; font-family: Calibri, Calibri_EmbeddedFont, Calibri_MSFontService, sans-serif; color: rgb(13, 13, 13);&quot; data-ccp-props=&quot;{&amp;quot;335557856&amp;quot;:16777215,&amp;quot;335559738&amp;quot;:300,&amp;quot;335559739&amp;quot;:300}&quot; class=&quot;EOP SCXW242477588 BCX0&quot;&gt;&amp;nbsp;&lt;/span&gt;&lt;/p&gt;&lt;/div&gt;&lt;div style=&quot;-webkit-user-drag: none; -webkit-tap-highlight-color: transparent; margin: 0px; padding: 0px; user-select: text; position: relative; font-family: &amp;quot;Segoe UI&amp;quot;, &amp;quot;Segoe UI Web&amp;quot;, Arial, Verdana, sans-serif; font-size: 12px; text-align: start;&quot; class=&quot;ListContainerWrapper SCXW242477588 BCX0&quot;&gt;&lt;ul style=&quot;-webkit-user-drag: none; -webkit-tap-highlight-color: transparent; margin: 0px; padding: 0px; user-select: text; cursor: text; font-family: verdana; overflow: visible;&quot; role=&quot;list&quot; class=&quot;BulletListStyle1 SCXW242477588 BCX0&quot;&gt;&lt;li style=&quot;-webkit-user-drag: none; -webkit-tap-highlight-color: transparent; margin: 0px 0px 0px 24px; padding: 0px; user-select: text; clear: both; cursor: text; overflow: visible; position: relative; direction: ltr; display: block; font-size: 12pt; font-family: Calibri, Calibri_MSFontService, sans-serif; vertical-align: baseline;&quot; class=&quot;OutlineElement Ltr SCXW242477588 BCX0&quot; role=&quot;listitem&quot; data-aria-level=&quot;1&quot; data-aria-posinset=&quot;19&quot; aria-setsize=&quot;-1&quot; data-list-defn-props=&quot;{&amp;quot;335552541&amp;quot;:1,&amp;quot;335559685&amp;quot;:720,&amp;quot;335559991&amp;quot;:360,&amp;quot;469769226&amp;quot;:&amp;quot;Symbol&amp;quot;,&amp;quot;469769242&amp;quot;:[8226],&amp;quot;469777803&amp;quot;:&amp;quot;left&amp;quot;,&amp;quot;469777804&amp;quot;:&amp;quot;&amp;quot;,&amp;quot;469777815&amp;quot;:&amp;quot;hybridMultilevel&amp;quot;}&quot; data-listid=&quot;1&quot; data-font=&quot;Symbol&quot; data-leveltext=&quot;&quot;&gt;&lt;p style=&quot;-webkit-user-drag: none; -webkit-tap-highlight-color: transparent; margin: 0px; padding: 0px; user-select: text; overflow-wrap: break-word; white-space-collapse: preserve; vertical-align: baseline; font-kerning: none; color: windowtext;&quot; class=&quot;Paragraph SCXW242477588 BCX0&quot;&gt;&lt;span style=&quot;-webkit-user-drag: none; -webkit-tap-highlight-color: transparent; margin: 0px; padding: 0px; user-select: text; font-variant-ligatures: none !important; color: rgb(13, 13, 13); font-size: 12pt; line-height: 20.5042px; font-family: Calibri, Calibri_EmbeddedFont, Calibri_MSFontService, sans-serif; font-weight: bold;&quot; class=&quot;TextRun SCXW242477588 BCX0&quot; lang=&quot;PT-BR&quot; data-contrast=&quot;none&quot;&gt;Evento:&lt;/span&gt;&lt;span style=&quot;-webkit-user-drag: none; -webkit-tap-highlight-color: transparent; margin: 0px; padding: 0px; user-select: text; font-variant-ligatures: none !important; color: rgb(13, 13, 13); font-size: 12pt; line-height: 20.5042px; font-family: Calibri, Calibri_EmbeddedFont, Calibri_MSFontService, sans-serif;&quot; class=&quot;TextRun SCXW242477588 BCX0&quot; lang=&quot;PT-BR&quot; data-contrast=&quot;none&quot;&gt; Pizzas são entregues aos clientes.&lt;/span&gt;&lt;span style=&quot;-webkit-user-drag: none; -webkit-tap-highlight-color: transparent; margin: 0px; padding: 0px; user-select: text; font-size: 12pt; line-height: 20.5042px; font-family: Calibri, Calibri_EmbeddedFont, Calibri_MSFontService, sans-serif; color: rgb(13, 13, 13);&quot; data-ccp-props=&quot;{&amp;quot;335557856&amp;quot;:16777215,&amp;quot;335559739&amp;quot;:0}&quot; class=&quot;EOP SCXW242477588 BCX0&quot;&gt;&amp;nbsp;&lt;/span&gt;&lt;/p&gt;&lt;/li&gt;&lt;li style=&quot;-webkit-user-drag: none; -webkit-tap-highlight-color: transparent; margin: 0px 0px 0px 24px; padding: 0px; user-select: text; clear: both; cursor: text; overflow: visible; position: relative; direction: ltr; display: block; font-size: 12pt; font-family: Calibri, Calibri_MSFontService, sans-serif; vertical-align: baseline;&quot; class=&quot;OutlineElement Ltr SCXW242477588 BCX0&quot; role=&quot;listitem&quot; data-aria-level=&quot;1&quot; data-aria-posinset=&quot;20&quot; aria-setsize=&quot;-1&quot; data-list-defn-props=&quot;{&amp;quot;335552541&amp;quot;:1,&amp;quot;335559685&amp;quot;:720,&amp;quot;335559991&amp;quot;:360,&amp;quot;469769226&amp;quot;:&amp;quot;Symbol&amp;quot;,&amp;quot;469769242&amp;quot;:[8226],&amp;quot;469777803&amp;quot;:&amp;quot;left&amp;quot;,&amp;quot;469777804&amp;quot;:&amp;quot;&amp;quot;,&amp;quot;469777815&amp;quot;:&amp;quot;hybridMultilevel&amp;quot;}&quot; data-listid=&quot;1&quot; data-font=&quot;Symbol&quot; data-leveltext=&quot;&quot;&gt;&lt;p style=&quot;-webkit-user-drag: none; -webkit-tap-highlight-color: transparent; margin: 0px; padding: 0px; user-select: text; overflow-wrap: break-word; white-space-collapse: preserve; vertical-align: baseline; font-kerning: none; color: windowtext;&quot; class=&quot;Paragraph SCXW242477588 BCX0&quot;&gt;&lt;span style=&quot;-webkit-user-drag: none; -webkit-tap-highlight-color: transparent; margin: 0px; padding: 0px; user-select: text; font-variant-ligatures: none !important; color: rgb(13, 13, 13); font-size: 12pt; line-height: 20.5042px; font-family: Calibri, Calibri_EmbeddedFont, Calibri_MSFontService, sans-serif; font-weight: bold;&quot; class=&quot;TextRun SCXW242477588 BCX0&quot; lang=&quot;PT-BR&quot; data-contrast=&quot;none&quot;&gt;Objetivo:&lt;/span&gt;&lt;span style=&quot;-webkit-user-drag: none; -webkit-tap-highlight-color: transparent; margin: 0px; padding: 0px; user-select: text; font-variant-ligatures: none !important; color: rgb(13, 13, 13); font-size: 12pt; line-height: 20.5042px; font-family: Calibri, Calibri_EmbeddedFont, Calibri_MSFontService, sans-serif;&quot; class=&quot;TextRun SCXW242477588 BCX0&quot; lang=&quot;PT-BR&quot; data-contrast=&quot;none&quot;&gt; Realizar a entrega das pizzas de forma rápida e eficiente, garantindo a satisfação do cliente.&lt;/span&gt;&lt;span style=&quot;-webkit-user-drag: none; -webkit-tap-highlight-color: transparent; margin: 0px; padding: 0px; user-select: text; font-size: 12pt; line-height: 20.5042px; font-family: Calibri, Calibri_EmbeddedFont, Calibri_MSFontService, sans-serif; color: rgb(13, 13, 13);&quot; data-ccp-props=&quot;{&amp;quot;335557856&amp;quot;:16777215,&amp;quot;335559739&amp;quot;:0}&quot; class=&quot;EOP SCXW242477588 BCX0&quot;&gt;&amp;nbsp;&lt;/span&gt;&lt;/p&gt;&lt;/li&gt;&lt;li style=&quot;-webkit-user-drag: none; -webkit-tap-highlight-color: transparent; margin: 0px 0px 0px 24px; padding: 0px; user-select: text; clear: both; cursor: text; overflow: visible; position: relative; direction: ltr; display: block; font-size: 12pt; font-family: Calibri, Calibri_MSFontService, sans-serif; vertical-align: baseline;&quot; class=&quot;OutlineElement Ltr SCXW242477588 BCX0&quot; role=&quot;listitem&quot; data-aria-level=&quot;1&quot; data-aria-posinset=&quot;21&quot; aria-setsize=&quot;-1&quot; data-list-defn-props=&quot;{&amp;quot;335552541&amp;quot;:1,&amp;quot;335559685&amp;quot;:720,&amp;quot;335559991&amp;quot;:360,&amp;quot;469769226&amp;quot;:&amp;quot;Symbol&amp;quot;,&amp;quot;469769242&amp;quot;:[8226],&amp;quot;469777803&amp;quot;:&amp;quot;left&amp;quot;,&amp;quot;469777804&amp;quot;:&amp;quot;&amp;quot;,&amp;quot;469777815&amp;quot;:&amp;quot;hybridMultilevel&amp;quot;}&quot; data-listid=&quot;1&quot; data-font=&quot;Symbol&quot; data-leveltext=&quot;&quot;&gt;&lt;p style=&quot;-webkit-user-drag: none; -webkit-tap-highlight-color: transparent; margin: 0px; padding: 0px; user-select: text; overflow-wrap: break-word; white-space-collapse: preserve; vertical-align: baseline; font-kerning: none; color: windowtext;&quot; class=&quot;Paragraph SCXW242477588 BCX0&quot;&gt;&lt;span style=&quot;-webkit-user-drag: none; -webkit-tap-highlight-color: transparent; margin: 0px; padding: 0px; user-select: text; font-variant-ligatures: none !important; color: rgb(13, 13, 13); font-size: 12pt; line-height: 20.5042px; font-family: Calibri, Calibri_EmbeddedFont, Calibri_MSFontService, sans-serif; font-weight: bold;&quot; class=&quot;TextRun SCXW242477588 BCX0&quot; lang=&quot;PT-BR&quot; data-contrast=&quot;none&quot;&gt;Trabalhadores Envolvidos:&lt;/span&gt;&lt;span style=&quot;-webkit-user-drag: none; -webkit-tap-highlight-color: transparent; margin: 0px; padding: 0px; user-select: text; font-variant-ligatures: none !important; color: rgb(13, 13, 13); font-size: 12pt; line-height: 20.5042px; font-family: Calibri, Calibri_EmbeddedFont, Calibri_MSFontService, sans-serif;&quot; class=&quot;TextRun SCXW242477588 BCX0&quot; lang=&quot;PT-BR&quot; data-contrast=&quot;none&quot;&gt; Entregadores.&lt;/span&gt;&lt;span style=&quot;-webkit-user-drag: none; -webkit-tap-highlight-color: transparent; margin: 0px; padding: 0px; user-select: text; font-size: 12pt; line-height: 20.5042px; font-family: Calibri, Calibri_EmbeddedFont, Calibri_MSFontService, sans-serif; color: rgb(13, 13, 13);&quot; data-ccp-props=&quot;{&amp;quot;335557856&amp;quot;:16777215,&amp;quot;335559739&amp;quot;:0}&quot; class=&quot;EOP SCXW242477588 BCX0&quot;&gt;&amp;nbsp;&lt;/span&gt;&lt;/p&gt;&lt;/li&gt;&lt;/ul&gt;&lt;/div&gt;" style="text;html=1;align=center;verticalAlign=middle;whiteSpace=wrap;rounded=0;fontSize=16;" vertex="1" parent="1">
          <mxGeometry x="292" y="2478" width="373" height="105" as="geometry" />
        </mxCell>
        <mxCell id="Y9XDCs3cdz9xWgN9fsB4-89" style="edgeStyle=none;curved=1;rounded=0;orthogonalLoop=1;jettySize=auto;html=1;exitX=0;exitY=0.5;exitDx=0;exitDy=0;entryX=1;entryY=0.5;entryDx=0;entryDy=0;fontSize=12;startSize=8;endSize=8;" edge="1" parent="1" source="Y9XDCs3cdz9xWgN9fsB4-87" target="Y9XDCs3cdz9xWgN9fsB4-88">
          <mxGeometry relative="1" as="geometry" />
        </mxCell>
        <mxCell id="Y9XDCs3cdz9xWgN9fsB4-87" value="Atendimento&lt;div&gt;ao&lt;/div&gt;&lt;div&gt;Cliente&lt;/div&gt;" style="ellipse;whiteSpace=wrap;html=1;aspect=fixed;" vertex="1" parent="1">
          <mxGeometry x="188" y="2793" width="64" height="64" as="geometry" />
        </mxCell>
        <mxCell id="Y9XDCs3cdz9xWgN9fsB4-88" value="Cliente" style="rounded=0;whiteSpace=wrap;html=1;" vertex="1" parent="1">
          <mxGeometry x="61" y="2777" width="71" height="30" as="geometry" />
        </mxCell>
        <mxCell id="Y9XDCs3cdz9xWgN9fsB4-90" value="&lt;div style=&quot;-webkit-user-drag: none; -webkit-tap-highlight-color: transparent; margin: 0px; padding: 0px; user-select: text; clear: both; cursor: text; overflow: visible; position: relative; direction: ltr; font-family: &amp;quot;Segoe UI&amp;quot;, &amp;quot;Segoe UI Web&amp;quot;, Arial, Verdana, sans-serif; font-size: 12px; text-align: start;&quot; class=&quot;OutlineElement Ltr SCXW253837437 BCX0&quot;&gt;&lt;p style=&quot;-webkit-user-drag: none; -webkit-tap-highlight-color: transparent; margin: 20px 0px; padding: 0px; user-select: text; overflow-wrap: break-word; white-space-collapse: preserve; vertical-align: baseline; font-kerning: none; color: windowtext;&quot; class=&quot;Paragraph SCXW253837437 BCX0&quot;&gt;&lt;span style=&quot;-webkit-user-drag: none; -webkit-tap-highlight-color: transparent; margin: 0px; padding: 0px; user-select: text; font-variant-ligatures: none !important; color: rgb(13, 13, 13); font-size: 12pt; line-height: 20.5042px; font-family: Calibri, Calibri_EmbeddedFont, Calibri_MSFontService, sans-serif; font-weight: bold;&quot; class=&quot;TextRun SCXW253837437 BCX0&quot; lang=&quot;PT-BR&quot; data-contrast=&quot;none&quot;&gt;Atendimento ao Cliente:&lt;/span&gt;&lt;span style=&quot;-webkit-user-drag: none; -webkit-tap-highlight-color: transparent; margin: 0px; padding: 0px; user-select: text; font-size: 12pt; line-height: 20.5042px; font-family: Calibri, Calibri_EmbeddedFont, Calibri_MSFontService, sans-serif; color: rgb(13, 13, 13);&quot; data-ccp-props=&quot;{&amp;quot;335557856&amp;quot;:16777215,&amp;quot;335559738&amp;quot;:300,&amp;quot;335559739&amp;quot;:300}&quot; class=&quot;EOP SCXW253837437 BCX0&quot;&gt;&amp;nbsp;&lt;/span&gt;&lt;/p&gt;&lt;/div&gt;&lt;div style=&quot;-webkit-user-drag: none; -webkit-tap-highlight-color: transparent; margin: 0px; padding: 0px; user-select: text; position: relative; font-family: &amp;quot;Segoe UI&amp;quot;, &amp;quot;Segoe UI Web&amp;quot;, Arial, Verdana, sans-serif; font-size: 12px; text-align: start;&quot; class=&quot;ListContainerWrapper SCXW253837437 BCX0&quot;&gt;&lt;ul style=&quot;-webkit-user-drag: none; -webkit-tap-highlight-color: transparent; margin: 0px; padding: 0px; user-select: text; cursor: text; font-family: verdana; overflow: visible;&quot; role=&quot;list&quot; class=&quot;BulletListStyle1 SCXW253837437 BCX0&quot;&gt;&lt;li style=&quot;-webkit-user-drag: none; -webkit-tap-highlight-color: transparent; margin: 0px 0px 0px 24px; padding: 0px; user-select: text; clear: both; cursor: text; overflow: visible; position: relative; direction: ltr; display: block; font-size: 12pt; font-family: Calibri, Calibri_MSFontService, sans-serif; vertical-align: baseline;&quot; class=&quot;OutlineElement Ltr SCXW253837437 BCX0&quot; role=&quot;listitem&quot; data-aria-level=&quot;1&quot; data-aria-posinset=&quot;22&quot; aria-setsize=&quot;-1&quot; data-list-defn-props=&quot;{&amp;quot;335552541&amp;quot;:1,&amp;quot;335559685&amp;quot;:720,&amp;quot;335559991&amp;quot;:360,&amp;quot;469769226&amp;quot;:&amp;quot;Symbol&amp;quot;,&amp;quot;469769242&amp;quot;:[8226],&amp;quot;469777803&amp;quot;:&amp;quot;left&amp;quot;,&amp;quot;469777804&amp;quot;:&amp;quot;&amp;quot;,&amp;quot;469777815&amp;quot;:&amp;quot;hybridMultilevel&amp;quot;}&quot; data-listid=&quot;1&quot; data-font=&quot;Symbol&quot; data-leveltext=&quot;&quot;&gt;&lt;p style=&quot;-webkit-user-drag: none; -webkit-tap-highlight-color: transparent; margin: 0px; padding: 0px; user-select: text; overflow-wrap: break-word; white-space-collapse: preserve; vertical-align: baseline; font-kerning: none; color: windowtext;&quot; class=&quot;Paragraph SCXW253837437 BCX0&quot;&gt;&lt;span style=&quot;-webkit-user-drag: none; -webkit-tap-highlight-color: transparent; margin: 0px; padding: 0px; user-select: text; font-variant-ligatures: none !important; color: rgb(13, 13, 13); font-size: 12pt; line-height: 20.5042px; font-family: Calibri, Calibri_EmbeddedFont, Calibri_MSFontService, sans-serif; font-weight: bold;&quot; class=&quot;TextRun SCXW253837437 BCX0&quot; lang=&quot;PT-BR&quot; data-contrast=&quot;none&quot;&gt;Evento:&lt;/span&gt;&lt;span style=&quot;-webkit-user-drag: none; -webkit-tap-highlight-color: transparent; margin: 0px; padding: 0px; user-select: text; font-variant-ligatures: none !important; color: rgb(13, 13, 13); font-size: 12pt; line-height: 20.5042px; font-family: Calibri, Calibri_EmbeddedFont, Calibri_MSFontService, sans-serif;&quot; class=&quot;TextRun SCXW253837437 BCX0&quot; lang=&quot;PT-BR&quot; data-contrast=&quot;none&quot;&gt; Interagir com o cliente durante todo o processo.&lt;/span&gt;&lt;span style=&quot;-webkit-user-drag: none; -webkit-tap-highlight-color: transparent; margin: 0px; padding: 0px; user-select: text; font-size: 12pt; line-height: 20.5042px; font-family: Calibri, Calibri_EmbeddedFont, Calibri_MSFontService, sans-serif; color: rgb(13, 13, 13);&quot; data-ccp-props=&quot;{&amp;quot;335557856&amp;quot;:16777215,&amp;quot;335559739&amp;quot;:0}&quot; class=&quot;EOP SCXW253837437 BCX0&quot;&gt;&amp;nbsp;&lt;/span&gt;&lt;/p&gt;&lt;/li&gt;&lt;li style=&quot;-webkit-user-drag: none; -webkit-tap-highlight-color: transparent; margin: 0px 0px 0px 24px; padding: 0px; user-select: text; clear: both; cursor: text; overflow: visible; position: relative; direction: ltr; display: block; font-size: 12pt; font-family: Calibri, Calibri_MSFontService, sans-serif; vertical-align: baseline;&quot; class=&quot;OutlineElement Ltr SCXW253837437 BCX0&quot; role=&quot;listitem&quot; data-aria-level=&quot;1&quot; data-aria-posinset=&quot;23&quot; aria-setsize=&quot;-1&quot; data-list-defn-props=&quot;{&amp;quot;335552541&amp;quot;:1,&amp;quot;335559685&amp;quot;:720,&amp;quot;335559991&amp;quot;:360,&amp;quot;469769226&amp;quot;:&amp;quot;Symbol&amp;quot;,&amp;quot;469769242&amp;quot;:[8226],&amp;quot;469777803&amp;quot;:&amp;quot;left&amp;quot;,&amp;quot;469777804&amp;quot;:&amp;quot;&amp;quot;,&amp;quot;469777815&amp;quot;:&amp;quot;hybridMultilevel&amp;quot;}&quot; data-listid=&quot;1&quot; data-font=&quot;Symbol&quot; data-leveltext=&quot;&quot;&gt;&lt;p style=&quot;-webkit-user-drag: none; -webkit-tap-highlight-color: transparent; margin: 0px; padding: 0px; user-select: text; overflow-wrap: break-word; white-space-collapse: preserve; vertical-align: baseline; font-kerning: none; color: windowtext;&quot; class=&quot;Paragraph SCXW253837437 BCX0&quot;&gt;&lt;span style=&quot;-webkit-user-drag: none; -webkit-tap-highlight-color: transparent; margin: 0px; padding: 0px; user-select: text; font-variant-ligatures: none !important; color: rgb(13, 13, 13); font-size: 12pt; line-height: 20.5042px; font-family: Calibri, Calibri_EmbeddedFont, Calibri_MSFontService, sans-serif; font-weight: bold;&quot; class=&quot;TextRun SCXW253837437 BCX0&quot; lang=&quot;PT-BR&quot; data-contrast=&quot;none&quot;&gt;Objetivo:&lt;/span&gt;&lt;span style=&quot;-webkit-user-drag: none; -webkit-tap-highlight-color: transparent; margin: 0px; padding: 0px; user-select: text; font-variant-ligatures: none !important; color: rgb(13, 13, 13); font-size: 12pt; line-height: 20.5042px; font-family: Calibri, Calibri_EmbeddedFont, Calibri_MSFontService, sans-serif;&quot; class=&quot;TextRun SCXW253837437 BCX0&quot; lang=&quot;PT-BR&quot; data-contrast=&quot;none&quot;&gt; Proporcionar um excelente atendimento ao cliente, esclarecendo dúvidas e garantindo sua satisfação.&lt;/span&gt;&lt;span style=&quot;-webkit-user-drag: none; -webkit-tap-highlight-color: transparent; margin: 0px; padding: 0px; user-select: text; font-size: 12pt; line-height: 20.5042px; font-family: Calibri, Calibri_EmbeddedFont, Calibri_MSFontService, sans-serif; color: rgb(13, 13, 13);&quot; data-ccp-props=&quot;{&amp;quot;335557856&amp;quot;:16777215,&amp;quot;335559739&amp;quot;:0}&quot; class=&quot;EOP SCXW253837437 BCX0&quot;&gt;&amp;nbsp;&lt;/span&gt;&lt;/p&gt;&lt;/li&gt;&lt;li style=&quot;-webkit-user-drag: none; -webkit-tap-highlight-color: transparent; margin: 0px 0px 0px 24px; padding: 0px; user-select: text; clear: both; cursor: text; overflow: visible; position: relative; direction: ltr; display: block; font-size: 12pt; font-family: Calibri, Calibri_MSFontService, sans-serif; vertical-align: baseline;&quot; class=&quot;OutlineElement Ltr SCXW253837437 BCX0&quot; role=&quot;listitem&quot; data-aria-level=&quot;1&quot; data-aria-posinset=&quot;24&quot; aria-setsize=&quot;-1&quot; data-list-defn-props=&quot;{&amp;quot;335552541&amp;quot;:1,&amp;quot;335559685&amp;quot;:720,&amp;quot;335559991&amp;quot;:360,&amp;quot;469769226&amp;quot;:&amp;quot;Symbol&amp;quot;,&amp;quot;469769242&amp;quot;:[8226],&amp;quot;469777803&amp;quot;:&amp;quot;left&amp;quot;,&amp;quot;469777804&amp;quot;:&amp;quot;&amp;quot;,&amp;quot;469777815&amp;quot;:&amp;quot;hybridMultilevel&amp;quot;}&quot; data-listid=&quot;1&quot; data-font=&quot;Symbol&quot; data-leveltext=&quot;&quot;&gt;&lt;p style=&quot;-webkit-user-drag: none; -webkit-tap-highlight-color: transparent; margin: 0px; padding: 0px; user-select: text; overflow-wrap: break-word; white-space-collapse: preserve; vertical-align: baseline; font-kerning: none; color: windowtext;&quot; class=&quot;Paragraph SCXW253837437 BCX0&quot;&gt;&lt;span style=&quot;-webkit-user-drag: none; -webkit-tap-highlight-color: transparent; margin: 0px; padding: 0px; user-select: text; font-variant-ligatures: none !important; color: rgb(13, 13, 13); font-size: 12pt; line-height: 20.5042px; font-family: Calibri, Calibri_EmbeddedFont, Calibri_MSFontService, sans-serif; font-weight: bold;&quot; class=&quot;TextRun SCXW253837437 BCX0&quot; lang=&quot;PT-BR&quot; data-contrast=&quot;none&quot;&gt;Trabalhadores Envolvidos:&lt;/span&gt;&lt;span style=&quot;-webkit-user-drag: none; -webkit-tap-highlight-color: transparent; margin: 0px; padding: 0px; user-select: text; font-variant-ligatures: none !important; color: rgb(13, 13, 13); font-size: 12pt; line-height: 20.5042px; font-family: Calibri, Calibri_EmbeddedFont, Calibri_MSFontService, sans-serif;&quot; class=&quot;TextRun SCXW253837437 BCX0&quot; lang=&quot;PT-BR&quot; data-contrast=&quot;none&quot;&gt; Atendentes, Entregadores.&lt;/span&gt;&lt;span style=&quot;-webkit-user-drag: none; -webkit-tap-highlight-color: transparent; margin: 0px; padding: 0px; user-select: text; font-size: 12pt; line-height: 20.5042px; font-family: Calibri, Calibri_EmbeddedFont, Calibri_MSFontService, sans-serif; color: rgb(13, 13, 13);&quot; data-ccp-props=&quot;{&amp;quot;335557856&amp;quot;:16777215,&amp;quot;335559739&amp;quot;:0}&quot; class=&quot;EOP SCXW253837437 BCX0&quot;&gt;&amp;nbsp;&lt;/span&gt;&lt;/p&gt;&lt;/li&gt;&lt;/ul&gt;&lt;/div&gt;" style="text;html=1;align=center;verticalAlign=middle;whiteSpace=wrap;rounded=0;fontSize=16;" vertex="1" parent="1">
          <mxGeometry x="290" y="2797" width="347" height="145" as="geometry" />
        </mxCell>
        <mxCell id="Y9XDCs3cdz9xWgN9fsB4-91" style="edgeStyle=none;curved=1;rounded=0;orthogonalLoop=1;jettySize=auto;html=1;exitX=1;exitY=0.5;exitDx=0;exitDy=0;entryX=-0.014;entryY=0.205;entryDx=0;entryDy=0;entryPerimeter=0;fontSize=12;startSize=8;endSize=8;" edge="1" parent="1" source="Y9XDCs3cdz9xWgN9fsB4-87" target="Y9XDCs3cdz9xWgN9fsB4-90">
          <mxGeometry relative="1" as="geometry" />
        </mxCell>
        <mxCell id="Y9XDCs3cdz9xWgN9fsB4-92" value="Feedback&lt;div&gt;Melhoria&lt;/div&gt;&lt;div&gt;Continua&lt;/div&gt;" style="ellipse;whiteSpace=wrap;html=1;aspect=fixed;" vertex="1" parent="1">
          <mxGeometry x="190" y="3132" width="64" height="64" as="geometry" />
        </mxCell>
        <mxCell id="Y9XDCs3cdz9xWgN9fsB4-93" value="&lt;div style=&quot;-webkit-user-drag: none; -webkit-tap-highlight-color: transparent; margin: 0px; padding: 0px; user-select: text; clear: both; cursor: text; overflow: visible; position: relative; direction: ltr; font-family: &amp;quot;Segoe UI&amp;quot;, &amp;quot;Segoe UI Web&amp;quot;, Arial, Verdana, sans-serif; font-size: 12px; text-align: start;&quot; class=&quot;OutlineElement Ltr SCXW203583251 BCX0&quot;&gt;&lt;p style=&quot;-webkit-user-drag: none; -webkit-tap-highlight-color: transparent; margin: 20px 0px; padding: 0px; user-select: text; overflow-wrap: break-word; white-space-collapse: preserve; vertical-align: baseline; font-kerning: none; color: windowtext;&quot; class=&quot;Paragraph SCXW203583251 BCX0&quot;&gt;&lt;span style=&quot;-webkit-user-drag: none; -webkit-tap-highlight-color: transparent; margin: 0px; padding: 0px; user-select: text; font-variant-ligatures: none !important; color: rgb(13, 13, 13); font-size: 12pt; line-height: 20.5042px; font-family: Calibri, Calibri_EmbeddedFont, Calibri_MSFontService, sans-serif; font-weight: bold;&quot; class=&quot;TextRun SCXW203583251 BCX0&quot; lang=&quot;PT-BR&quot; data-contrast=&quot;none&quot;&gt;  Feedback e Melhoria Contínua:&lt;/span&gt;&lt;span style=&quot;-webkit-user-drag: none; -webkit-tap-highlight-color: transparent; margin: 0px; padding: 0px; user-select: text; font-size: 12pt; line-height: 20.5042px; font-family: Calibri, Calibri_EmbeddedFont, Calibri_MSFontService, sans-serif; color: rgb(13, 13, 13);&quot; data-ccp-props=&quot;{&amp;quot;335557856&amp;quot;:16777215,&amp;quot;335559738&amp;quot;:300,&amp;quot;335559739&amp;quot;:300}&quot; class=&quot;EOP SCXW203583251 BCX0&quot;&gt;&amp;nbsp;&lt;/span&gt;&lt;/p&gt;&lt;/div&gt;&lt;div style=&quot;-webkit-user-drag: none; -webkit-tap-highlight-color: transparent; margin: 0px; padding: 0px; user-select: text; position: relative; font-family: &amp;quot;Segoe UI&amp;quot;, &amp;quot;Segoe UI Web&amp;quot;, Arial, Verdana, sans-serif; font-size: 12px; text-align: start;&quot; class=&quot;ListContainerWrapper SCXW203583251 BCX0&quot;&gt;&lt;ul style=&quot;-webkit-user-drag: none; -webkit-tap-highlight-color: transparent; margin: 0px; padding: 0px; user-select: text; cursor: text; font-family: verdana; overflow: visible;&quot; role=&quot;list&quot; class=&quot;BulletListStyle1 SCXW203583251 BCX0&quot;&gt;&lt;li style=&quot;-webkit-user-drag: none; -webkit-tap-highlight-color: transparent; margin: 0px 0px 0px 24px; padding: 0px; user-select: text; clear: both; cursor: text; overflow: visible; position: relative; direction: ltr; display: block; font-size: 12pt; font-family: Calibri, Calibri_MSFontService, sans-serif; vertical-align: baseline;&quot; class=&quot;OutlineElement Ltr SCXW203583251 BCX0&quot; role=&quot;listitem&quot; data-aria-level=&quot;1&quot; data-aria-posinset=&quot;25&quot; aria-setsize=&quot;-1&quot; data-list-defn-props=&quot;{&amp;quot;335552541&amp;quot;:1,&amp;quot;335559685&amp;quot;:720,&amp;quot;335559991&amp;quot;:360,&amp;quot;469769226&amp;quot;:&amp;quot;Symbol&amp;quot;,&amp;quot;469769242&amp;quot;:[8226],&amp;quot;469777803&amp;quot;:&amp;quot;left&amp;quot;,&amp;quot;469777804&amp;quot;:&amp;quot;&amp;quot;,&amp;quot;469777815&amp;quot;:&amp;quot;hybridMultilevel&amp;quot;}&quot; data-listid=&quot;1&quot; data-font=&quot;Symbol&quot; data-leveltext=&quot;&quot;&gt;&lt;p style=&quot;-webkit-user-drag: none; -webkit-tap-highlight-color: transparent; margin: 0px; padding: 0px; user-select: text; overflow-wrap: break-word; white-space-collapse: preserve; vertical-align: baseline; font-kerning: none; color: windowtext;&quot; class=&quot;Paragraph SCXW203583251 BCX0&quot;&gt;&lt;span style=&quot;-webkit-user-drag: none; -webkit-tap-highlight-color: transparent; margin: 0px; padding: 0px; user-select: text; font-variant-ligatures: none !important; color: rgb(13, 13, 13); font-size: 12pt; line-height: 20.5042px; font-family: Calibri, Calibri_EmbeddedFont, Calibri_MSFontService, sans-serif; font-weight: bold;&quot; class=&quot;TextRun SCXW203583251 BCX0&quot; lang=&quot;PT-BR&quot; data-contrast=&quot;none&quot;&gt;Evento:&lt;/span&gt;&lt;span style=&quot;-webkit-user-drag: none; -webkit-tap-highlight-color: transparent; margin: 0px; padding: 0px; user-select: text; font-variant-ligatures: none !important; color: rgb(13, 13, 13); font-size: 12pt; line-height: 20.5042px; font-family: Calibri, Calibri_EmbeddedFont, Calibri_MSFontService, sans-serif;&quot; class=&quot;TextRun SCXW203583251 BCX0&quot; lang=&quot;PT-BR&quot; data-contrast=&quot;none&quot;&gt; Solicitar feedback dos clientes.&lt;/span&gt;&lt;span style=&quot;-webkit-user-drag: none; -webkit-tap-highlight-color: transparent; margin: 0px; padding: 0px; user-select: text; font-size: 12pt; line-height: 20.5042px; font-family: Calibri, Calibri_EmbeddedFont, Calibri_MSFontService, sans-serif; color: rgb(13, 13, 13);&quot; data-ccp-props=&quot;{&amp;quot;335557856&amp;quot;:16777215,&amp;quot;335559739&amp;quot;:0}&quot; class=&quot;EOP SCXW203583251 BCX0&quot;&gt;&amp;nbsp;&lt;/span&gt;&lt;/p&gt;&lt;/li&gt;&lt;li style=&quot;-webkit-user-drag: none; -webkit-tap-highlight-color: transparent; margin: 0px 0px 0px 24px; padding: 0px; user-select: text; clear: both; cursor: text; overflow: visible; position: relative; direction: ltr; display: block; font-size: 12pt; font-family: Calibri, Calibri_MSFontService, sans-serif; vertical-align: baseline;&quot; class=&quot;OutlineElement Ltr SCXW203583251 BCX0&quot; role=&quot;listitem&quot; data-aria-level=&quot;1&quot; data-aria-posinset=&quot;26&quot; aria-setsize=&quot;-1&quot; data-list-defn-props=&quot;{&amp;quot;335552541&amp;quot;:1,&amp;quot;335559685&amp;quot;:720,&amp;quot;335559991&amp;quot;:360,&amp;quot;469769226&amp;quot;:&amp;quot;Symbol&amp;quot;,&amp;quot;469769242&amp;quot;:[8226],&amp;quot;469777803&amp;quot;:&amp;quot;left&amp;quot;,&amp;quot;469777804&amp;quot;:&amp;quot;&amp;quot;,&amp;quot;469777815&amp;quot;:&amp;quot;hybridMultilevel&amp;quot;}&quot; data-listid=&quot;1&quot; data-font=&quot;Symbol&quot; data-leveltext=&quot;&quot;&gt;&lt;p style=&quot;-webkit-user-drag: none; -webkit-tap-highlight-color: transparent; margin: 0px; padding: 0px; user-select: text; overflow-wrap: break-word; white-space-collapse: preserve; vertical-align: baseline; font-kerning: none; color: windowtext;&quot; class=&quot;Paragraph SCXW203583251 BCX0&quot;&gt;&lt;span style=&quot;-webkit-user-drag: none; -webkit-tap-highlight-color: transparent; margin: 0px; padding: 0px; user-select: text; font-variant-ligatures: none !important; color: rgb(13, 13, 13); font-size: 12pt; line-height: 20.5042px; font-family: Calibri, Calibri_EmbeddedFont, Calibri_MSFontService, sans-serif; font-weight: bold;&quot; class=&quot;TextRun SCXW203583251 BCX0&quot; lang=&quot;PT-BR&quot; data-contrast=&quot;none&quot;&gt;Objetivo:&lt;/span&gt;&lt;span style=&quot;-webkit-user-drag: none; -webkit-tap-highlight-color: transparent; margin: 0px; padding: 0px; user-select: text; font-variant-ligatures: none !important; color: rgb(13, 13, 13); font-size: 12pt; line-height: 20.5042px; font-family: Calibri, Calibri_EmbeddedFont, Calibri_MSFontService, sans-serif;&quot; class=&quot;TextRun SCXW203583251 BCX0&quot; lang=&quot;PT-BR&quot; data-contrast=&quot;none&quot;&gt; Avaliar a experiência do cliente e identificar áreas de melhoria para garantir a excelência no serviço.&lt;/span&gt;&lt;span style=&quot;-webkit-user-drag: none; -webkit-tap-highlight-color: transparent; margin: 0px; padding: 0px; user-select: text; font-size: 12pt; line-height: 20.5042px; font-family: Calibri, Calibri_EmbeddedFont, Calibri_MSFontService, sans-serif; color: rgb(13, 13, 13);&quot; data-ccp-props=&quot;{&amp;quot;335557856&amp;quot;:16777215,&amp;quot;335559739&amp;quot;:0}&quot; class=&quot;EOP SCXW203583251 BCX0&quot;&gt;&amp;nbsp;&lt;/span&gt;&lt;/p&gt;&lt;/li&gt;&lt;li style=&quot;-webkit-user-drag: none; -webkit-tap-highlight-color: transparent; margin: 0px 0px 0px 24px; padding: 0px; user-select: text; clear: both; cursor: text; overflow: visible; position: relative; direction: ltr; display: block; font-size: 12pt; font-family: Calibri, Calibri_MSFontService, sans-serif; vertical-align: baseline;&quot; class=&quot;OutlineElement Ltr SCXW203583251 BCX0&quot; role=&quot;listitem&quot; data-aria-level=&quot;1&quot; data-aria-posinset=&quot;27&quot; aria-setsize=&quot;-1&quot; data-list-defn-props=&quot;{&amp;quot;335552541&amp;quot;:1,&amp;quot;335559685&amp;quot;:720,&amp;quot;335559991&amp;quot;:360,&amp;quot;469769226&amp;quot;:&amp;quot;Symbol&amp;quot;,&amp;quot;469769242&amp;quot;:[8226],&amp;quot;469777803&amp;quot;:&amp;quot;left&amp;quot;,&amp;quot;469777804&amp;quot;:&amp;quot;&amp;quot;,&amp;quot;469777815&amp;quot;:&amp;quot;hybridMultilevel&amp;quot;}&quot; data-listid=&quot;1&quot; data-font=&quot;Symbol&quot; data-leveltext=&quot;&quot;&gt;&lt;p style=&quot;-webkit-user-drag: none; -webkit-tap-highlight-color: transparent; margin: 0px; padding: 0px; user-select: text; overflow-wrap: break-word; white-space-collapse: preserve; vertical-align: baseline; font-kerning: none; color: windowtext;&quot; class=&quot;Paragraph SCXW203583251 BCX0&quot;&gt;&lt;span style=&quot;-webkit-user-drag: none; -webkit-tap-highlight-color: transparent; margin: 0px; padding: 0px; user-select: text; font-variant-ligatures: none !important; color: rgb(13, 13, 13); font-size: 12pt; line-height: 20.5042px; font-family: Calibri, Calibri_EmbeddedFont, Calibri_MSFontService, sans-serif; font-weight: bold;&quot; class=&quot;TextRun SCXW203583251 BCX0&quot; lang=&quot;PT-BR&quot; data-contrast=&quot;none&quot;&gt;Trabalhadores Envolvidos:&lt;/span&gt;&lt;span style=&quot;-webkit-user-drag: none; -webkit-tap-highlight-color: transparent; margin: 0px; padding: 0px; user-select: text; font-variant-ligatures: none !important; color: rgb(13, 13, 13); font-size: 12pt; line-height: 20.5042px; font-family: Calibri, Calibri_EmbeddedFont, Calibri_MSFontService, sans-serif;&quot; class=&quot;TextRun SCXW203583251 BCX0&quot; lang=&quot;PT-BR&quot; data-contrast=&quot;none&quot;&gt; Gerência, Equipe de Atendimento ao Cliente.&lt;/span&gt;&lt;span style=&quot;-webkit-user-drag: none; -webkit-tap-highlight-color: transparent; margin: 0px; padding: 0px; user-select: text; font-size: 12pt; line-height: 20.5042px; font-family: Calibri, Calibri_EmbeddedFont, Calibri_MSFontService, sans-serif; color: rgb(13, 13, 13);&quot; data-ccp-props=&quot;{&amp;quot;335557856&amp;quot;:16777215,&amp;quot;335559739&amp;quot;:0}&quot; class=&quot;EOP SCXW203583251 BCX0&quot;&gt;&amp;nbsp;&lt;/span&gt;&lt;/p&gt;&lt;/li&gt;&lt;/ul&gt;&lt;/div&gt;" style="text;html=1;align=center;verticalAlign=middle;whiteSpace=wrap;rounded=0;fontSize=16;" vertex="1" parent="1">
          <mxGeometry x="307" y="3132" width="366" height="161" as="geometry" />
        </mxCell>
        <mxCell id="Y9XDCs3cdz9xWgN9fsB4-94" style="edgeStyle=none;curved=1;rounded=0;orthogonalLoop=1;jettySize=auto;html=1;entryX=0.007;entryY=0.172;entryDx=0;entryDy=0;entryPerimeter=0;fontSize=12;startSize=8;endSize=8;" edge="1" parent="1" source="Y9XDCs3cdz9xWgN9fsB4-92" target="Y9XDCs3cdz9xWgN9fsB4-93">
          <mxGeometry relative="1" as="geometry" />
        </mxCell>
        <mxCell id="Y9XDCs3cdz9xWgN9fsB4-96" style="edgeStyle=none;curved=1;rounded=0;orthogonalLoop=1;jettySize=auto;html=1;exitX=1;exitY=0.5;exitDx=0;exitDy=0;entryX=0;entryY=0;entryDx=0;entryDy=0;fontSize=12;startSize=8;endSize=8;" edge="1" parent="1" source="Y9XDCs3cdz9xWgN9fsB4-95" target="Y9XDCs3cdz9xWgN9fsB4-92">
          <mxGeometry relative="1" as="geometry" />
        </mxCell>
        <mxCell id="Y9XDCs3cdz9xWgN9fsB4-95" value="Cliente" style="rounded=0;whiteSpace=wrap;html=1;" vertex="1" parent="1">
          <mxGeometry x="63" y="3102" width="71" height="30" as="geometry" />
        </mxCell>
        <mxCell id="Y9XDCs3cdz9xWgN9fsB4-100" style="edgeStyle=none;curved=1;rounded=0;orthogonalLoop=1;jettySize=auto;html=1;fontSize=12;startSize=8;endSize=8;entryX=0.5;entryY=0;entryDx=0;entryDy=0;" edge="1" parent="1" source="Y9XDCs3cdz9xWgN9fsB4-97" target="Y9XDCs3cdz9xWgN9fsB4-92">
          <mxGeometry relative="1" as="geometry">
            <mxPoint x="224" y="3126" as="targetPoint" />
          </mxGeometry>
        </mxCell>
        <mxCell id="Y9XDCs3cdz9xWgN9fsB4-101" value="Avalia&amp;nbsp;&amp;nbsp;" style="edgeLabel;html=1;align=center;verticalAlign=middle;resizable=0;points=[];fontSize=12;" vertex="1" connectable="0" parent="Y9XDCs3cdz9xWgN9fsB4-100">
          <mxGeometry x="-0.1186" y="3" relative="1" as="geometry">
            <mxPoint as="offset" />
          </mxGeometry>
        </mxCell>
        <mxCell id="Y9XDCs3cdz9xWgN9fsB4-97" value="Cliente" style="rounded=0;whiteSpace=wrap;html=1;" vertex="1" parent="1">
          <mxGeometry x="182.75" y="3032" width="78.5" height="41" as="geometry" />
        </mxCell>
      </root>
    </mxGraphModel>
  </diagram>
</mxfile>
